<svg xmlns="http://www.w3.org/2000/svg" width="38.436" height="38.436" viewBox="0 0 38.436 38.436"><defs><style>.a{fill:#fff;}</style></defs><path class="a" d="M38.436,19.218A19.218,19.218,0,1,0,19.218,38.436,19.219,19.219,0,0,0,38.436,19.218Zm-36.689,0A17.471,17.471,0,1,1,19.218,36.689,17.471,17.471,0,0,1,1.747,19.218Z"/><path class="a" d="M229.723,152.011V140.919h3.66l.578-3.676h-4.239V135.4c0-.959.314-1.875,1.691-1.875h2.752v-3.669H230.26c-3.285,0-4.181,2.163-4.181,5.161v2.224h-2.254v3.678h2.254v11.092Z" transform="translate(-209.768 -121.7)"/></svg>