<svg xmlns="http://www.w3.org/2000/svg" width="227" height="89.293" viewBox="0 0 227 89.293"><defs><style>.a{fill:#fff;stroke:#e4e4e4;}.b{fill:#f90;}.b,.c{fill-rule:evenodd;}.d{stroke:none;}.e{fill:none;}</style></defs><g class="a"><rect class="d" width="227" height="89.293" rx="6"/><rect class="e" x="0.5" y="0.5" width="226" height="88.293" rx="5.5"/></g><g transform="translate(37.718 22.839)"><path class="b" d="M276.349,324.43c-8.778,6.491-21.547,9.949-32.56,9.949a59.035,59.035,0,0,1-39.795-15.163c-.8-.745-.106-1.756.9-1.17a79.043,79.043,0,0,0,70.173,4.309C276.561,321.77,277.785,323.366,276.349,324.43Z" transform="translate(-182.288 -288.732)"/><path class="b" d="M337.523,318.842c-1.117-1.436-7.448-.692-10.268-.319-.851.106-1.011-.638-.213-1.17,5.054-3.565,13.3-2.5,14.258-1.33s-.266,9.47-5,13.407c-.745.585-1.436.266-1.117-.532C336.247,326.237,338.641,320.331,337.523,318.842Z" transform="translate(-239.792 -287.346)"/><path class="c" d="M251.123,268.1v-3.458a.81.81,0,0,1,.851-.851H267.4a.886.886,0,0,1,.9.851v2.926c0,.479-.426,1.117-1.17,2.181l-7.98,11.385A17.333,17.333,0,0,1,267.935,283a1.585,1.585,0,0,1,.8,1.33V288c0,.532-.532,1.117-1.117.8a17.6,17.6,0,0,0-16.28.053.835.835,0,0,1-1.117-.8V284.54a3.976,3.976,0,0,1,.585-2.341l9.257-13.247h-8.033A.887.887,0,0,1,251.123,268.1Zm-56.234,21.44h-4.682a.961.961,0,0,1-.851-.8V264.7a.887.887,0,0,1,.9-.851h4.363a.867.867,0,0,1,.851.8v3.139h.106a6.2,6.2,0,0,1,6.171-4.469c2.926,0,4.788,1.436,6.065,4.469a6.668,6.668,0,0,1,6.491-4.469,6.6,6.6,0,0,1,5.427,2.66c1.49,2.022,1.17,4.948,1.17,7.555v15.216a.887.887,0,0,1-.9.851h-4.629a.914.914,0,0,1-.851-.851V275.975a31.908,31.908,0,0,0-.106-4.522,2.468,2.468,0,0,0-2.766-2.075,3.133,3.133,0,0,0-2.82,1.968,14.742,14.742,0,0,0-.426,4.629v12.768a.887.887,0,0,1-.9.851h-4.682a.914.914,0,0,1-.851-.851V275.975c0-2.66.426-6.65-2.873-6.65-3.352,0-3.245,3.831-3.245,6.65v12.768a.934.934,0,0,1-.958.8Zm86.719-26.229c6.969,0,10.747,5.959,10.747,13.566,0,7.342-4.15,13.194-10.747,13.194-6.81,0-10.534-5.959-10.534-13.407C271.021,269.165,274.8,263.313,281.608,263.313Zm0,4.948c-3.458,0-3.671,4.735-3.671,7.661s-.053,9.2,3.618,9.2c3.618,0,3.831-5.054,3.831-8.14a23.28,23.28,0,0,0-.692-6.384A2.942,2.942,0,0,0,281.608,268.261Zm19.738,21.281h-4.682a.914.914,0,0,1-.851-.851v-24.1a.92.92,0,0,1,.9-.8h4.363a.91.91,0,0,1,.851.692v3.671h.106c1.33-3.3,3.139-4.841,6.384-4.841a6.2,6.2,0,0,1,5.48,2.82c1.224,1.915,1.224,5.161,1.224,7.5V288.8a.875.875,0,0,1-.9.745h-4.682a.968.968,0,0,1-.851-.745V275.709c0-2.66.319-6.491-2.926-6.491a3.08,3.08,0,0,0-2.713,1.915,11.045,11.045,0,0,0-.745,4.575V288.69a.974.974,0,0,1-.958.851ZM238.834,278.05c0,1.809.053,3.352-.851,5a3.765,3.765,0,0,1-3.245,2.128c-1.809,0-2.873-1.383-2.873-3.4,0-3.99,3.565-4.735,6.969-4.735Zm4.735,11.438a.962.962,0,0,1-1.117.106,11.749,11.749,0,0,1-2.713-3.139c-2.554,2.607-4.416,3.4-7.714,3.4-3.937,0-7.023-2.447-7.023-7.289a7.964,7.964,0,0,1,5-7.661c2.554-1.117,6.118-1.33,8.832-1.649v-.585c0-1.117.106-2.447-.585-3.4a3.15,3.15,0,0,0-2.607-1.224,3.543,3.543,0,0,0-3.777,2.82c-.106.426-.372.851-.8.851l-4.522-.479a.819.819,0,0,1-.692-.958c1.064-5.533,6.012-7.182,10.481-7.182,2.288,0,5.267.585,7.076,2.341,2.288,2.128,2.075,5,2.075,8.087v7.289c0,2.181.9,3.139,1.756,4.363.319.426.372.958,0,1.224-1.011.8-2.713,2.288-3.671,3.086ZM177.386,278.05c0,1.809.053,3.352-.851,5a3.765,3.765,0,0,1-3.245,2.128c-1.809,0-2.873-1.383-2.873-3.4,0-3.99,3.565-4.735,6.969-4.735Zm4.682,11.438a.962.962,0,0,1-1.117.106,11.749,11.749,0,0,1-2.713-3.139c-2.554,2.607-4.416,3.4-7.714,3.4-3.937,0-7.023-2.447-7.023-7.289a7.964,7.964,0,0,1,5-7.661c2.554-1.117,6.118-1.33,8.832-1.649v-.585c0-1.117.106-2.447-.585-3.4a3.15,3.15,0,0,0-2.607-1.224,3.543,3.543,0,0,0-3.777,2.82c-.106.426-.372.851-.8.851l-4.522-.479a.819.819,0,0,1-.692-.958c1.064-5.533,6.012-7.182,10.481-7.182,2.288,0,5.267.585,7.076,2.341,2.288,2.128,2.075,5,2.075,8.087v7.289c0,2.181.9,3.139,1.756,4.363.319.426.372.958,0,1.224-1.011.8-2.713,2.288-3.671,3.086Z" transform="translate(-163.5 -263.1)"/></g></svg>