<svg xmlns="http://www.w3.org/2000/svg" width="129" height="129" viewBox="0 0 129 129"><defs><style>.a{fill:#eaeaea;stroke:#d6d6d6;}.b{fill:#8100d9;}.c{stroke:none;}.d{fill:none;}</style></defs><g transform="translate(-1438 -5524)"><g class="a" transform="translate(1438 5524)"><circle class="c" cx="64.5" cy="64.5" r="64.5"/><circle class="d" cx="64.5" cy="64.5" r="64"/></g><g transform="translate(1471 5555)"><g transform="translate(27.034 58.392)"><path class="b" d="M224.63,447.3a.979.979,0,0,0-.979.979v1.081a.979.979,0,0,0,1.958,0v-1.081A.979.979,0,0,0,224.63,447.3Z" transform="translate(-223.651 -447.3)"/></g><g transform="translate(33.521 58.392)"><g transform="translate(0)"><path class="b" d="M274.328,447.3a.979.979,0,0,0-.979.979v1.081a.979.979,0,0,0,1.958,0v-1.081A.979.979,0,0,0,274.328,447.3Z" transform="translate(-273.349 -447.3)"/></g></g><g transform="translate(0)"><path class="b" d="M78.1,32.44h-12V16.118a.979.979,0,0,0-.979-.979h-.1V12.771h1.184a.979.979,0,0,0,.979-.979V7.467a.979.979,0,0,0-.979-.979h-12V.979A.979.979,0,0,0,53.229,0H42.416a.979.979,0,0,0-.979.979V6.488h-12a.979.979,0,0,0-.979.979v4.326a.979.979,0,0,0,.979.979h1.184v2.367h-.1a.979.979,0,0,0-.979.979v8.651a.979.979,0,0,0,1.958,0V17.1H64.145V64.88H60.7V62.512h.643a.979.979,0,0,0,.979-.979V55.046a.979.979,0,0,0-.979-.979H58.1a.979.979,0,0,0-.979.979v6.488a.979.979,0,0,0,.979.979h.643V64.88H55.29V53.862h1.184a.979.979,0,0,0,.979-.979V48.558a.979.979,0,0,0-.979-.979h-17.3a.979.979,0,0,0-.979.979v4.325a.979.979,0,0,0,.979.979h1.184V64.88H36.907V62.512h.643a.979.979,0,0,0,.979-.979V55.046a.979.979,0,0,0-.979-.979H34.306a.979.979,0,0,0-.979.979v6.488a.979.979,0,0,0,.979.979h.643V64.88H31.5V28.68a.979.979,0,1,0-1.958,0V32.44h-12a.979.979,0,0,0-.979.979V55.046a.979.979,0,0,0,.979.979h1.184v9.834a.979.979,0,0,0,.979.979H75.937a.979.979,0,0,0,.979-.979V56.025H78.1a.979.979,0,0,0,.979-.979V33.419A.979.979,0,0,0,78.1,32.44ZM29.542,64.88H20.687V56.025h8.855Zm0-10.814H18.524V34.4H29.542Zm7.029,6.488H35.285V56.025h1.286ZM46.81,64.88h-4.5V53.862h4.5Zm6.522,0H48.768V53.862h4.564Zm-12-12.976H40.151V49.537H55.494V51.9H41.335Zm19.026,8.65H59.074V56.025H60.36ZM43.395,1.958H52.25v8.855H43.395V1.958ZM31.6,10.813H30.419V8.446H41.437v2.367H31.6Zm31.461,4.325H32.582V12.771H63.063Zm.984-4.325H54.208V8.446H65.226v2.367ZM74.958,64.88H66.1V56.025h8.855Zm2.163-10.814H66.1V34.4H77.121Z" transform="translate(-16.566)"/></g><g transform="translate(4.325 36.765)"><path class="b" d="M55,281.632H50.678a.979.979,0,0,0-.979.979v4.325a.979.979,0,0,0,.979.979H55a.979.979,0,0,0,.979-.979v-4.325A.979.979,0,0,0,55,281.632Zm-.979,4.325H51.657V283.59h2.367Z" transform="translate(-49.699 -281.632)"/></g><g transform="translate(17.301 36.765)"><path class="b" d="M154.4,281.632h-4.325a.979.979,0,0,0-.979.979v4.325a.979.979,0,0,0,.979.979H154.4a.979.979,0,0,0,.979-.979v-4.325A.979.979,0,0,0,154.4,281.632Zm-.979,4.325h-2.367V283.59h2.367Z" transform="translate(-149.099 -281.632)"/></g><g transform="translate(38.928 36.765)"><g transform="translate(0)"><path class="b" d="M320.07,281.632h-4.325a.979.979,0,0,0-.979.979v4.325h0a.979.979,0,0,0,.979.979h4.325a.979.979,0,0,0,.979-.979v-4.325A.979.979,0,0,0,320.07,281.632Zm-.979,4.325h-2.367V283.59h2.367Z" transform="translate(-314.766 -281.632)"/></g></g><g transform="translate(28.081 36.765)"><path class="b" d="M236.979,281.632h-4.325a.979.979,0,0,0-.979.979v4.325a.979.979,0,0,0,.979.979h4.325a.979.979,0,0,0,.979-.979v-4.325A.979.979,0,0,0,236.979,281.632ZM236,285.957h-2.367V283.59H236Z" transform="translate(-231.675 -281.632)"/></g><g transform="translate(17.301 28.114)"><path class="b" d="M154.4,215.365h-4.325a.979.979,0,0,0-.979.979v4.325a.979.979,0,0,0,.979.979H154.4a.979.979,0,0,0,.979-.979v-4.325A.979.979,0,0,0,154.4,215.365Zm-.979,4.325h-2.367v-2.367h2.367Z" transform="translate(-149.099 -215.365)"/></g><g transform="translate(38.928 28.114)"><g transform="translate(0)"><path class="b" d="M320.07,215.365h-4.325a.979.979,0,0,0-.979.979v4.325h0a.979.979,0,0,0,.979.979h4.325a.979.979,0,0,0,.979-.979v-4.325A.979.979,0,0,0,320.07,215.365Zm-.979,4.325h-2.367v-2.367h2.367Z" transform="translate(-314.766 -215.365)"/></g></g><g transform="translate(28.081 28.114)"><path class="b" d="M236.979,215.365h-4.325a.979.979,0,0,0-.979.979v4.325a.979.979,0,0,0,.979.979h4.325a.979.979,0,0,0,.979-.979v-4.325A.979.979,0,0,0,236.979,215.365ZM236,219.69h-2.367v-2.367H236Z" transform="translate(-231.675 -215.365)"/></g><g transform="translate(17.301 19.464)"><path class="b" d="M154.4,149.1h-4.325a.979.979,0,0,0-.979.979V154.4a.979.979,0,0,0,.979.979H154.4a.979.979,0,0,0,.979-.979v-4.325A.979.979,0,0,0,154.4,149.1Zm-.979,4.326h-2.367v-2.367h2.367Z" transform="translate(-149.099 -149.097)"/></g><g transform="translate(38.928 19.464)"><path class="b" d="M320.071,149.1h-4.325a.979.979,0,0,0-.979.979V154.4a.979.979,0,0,0,.979.979h4.325a.979.979,0,0,0,.979-.979v-4.325A.979.979,0,0,0,320.071,149.1Zm-.979,4.326h-2.367v-2.367h2.367Z" transform="translate(-314.767 -149.097)"/></g><g transform="translate(28.081 19.464)"><path class="b" d="M236.979,149.1h-4.325a.979.979,0,0,0-.979.979V154.4a.979.979,0,0,0,.979.979h4.325a.979.979,0,0,0,.979-.979v-4.325A.979.979,0,0,0,236.979,149.1ZM236,153.423h-2.367v-2.367H236Z" transform="translate(-231.675 -149.097)"/></g><g transform="translate(51.904 36.765)"><path class="b" d="M419.471,281.632h-4.325a.979.979,0,0,0-.979.979v4.325a.979.979,0,0,0,.979.979h4.325a.979.979,0,0,0,.979-.979v-4.325A.979.979,0,0,0,419.471,281.632Zm-.979,4.325h-2.367V283.59h2.367Z" transform="translate(-414.167 -281.632)"/></g><g transform="translate(4.325 45.416)"><path class="b" d="M55,347.9H50.678a.979.979,0,0,0-.979.979V353.2a.979.979,0,0,0,.979.979H55a.979.979,0,0,0,.979-.979v-4.325A.979.979,0,0,0,55,347.9Zm-.979,4.325H51.657v-2.367h2.367Z" transform="translate(-49.699 -347.898)"/></g><g transform="translate(51.904 45.416)"><path class="b" d="M419.471,347.9h-4.325a.979.979,0,0,0-.979.979V353.2a.979.979,0,0,0,.979.979h4.325a.979.979,0,0,0,.979-.979v-4.325A.979.979,0,0,0,419.471,347.9Zm-.979,4.325h-2.367v-2.367h2.367Z" transform="translate(-414.167 -347.898)"/></g></g></g></svg>