<svg xmlns="http://www.w3.org/2000/svg" xmlns:xlink="http://www.w3.org/1999/xlink" width="214.197" height="63.474" viewBox="0 0 214.197 63.474"><defs><style>.a{fill:#a6a6a6;}.b{fill:#fff;}.c{fill:url(#a);}</style><linearGradient id="a" x1="-0.474" y1="0.887" x2="-0.474" y2="1.082" gradientUnits="objectBoundingBox"><stop offset="0" stop-color="#1a1a1a" stop-opacity="0.102"/><stop offset="0.123" stop-color="#212121" stop-opacity="0.153"/><stop offset="0.308" stop-color="#353535" stop-opacity="0.227"/><stop offset="0.532" stop-color="#575757" stop-opacity="0.318"/><stop offset="0.783" stop-color="#858585" stop-opacity="0.42"/><stop offset="1" stop-color="#b3b3b3" stop-opacity="0.51"/></linearGradient></defs><path class="a" d="M206.689,63.474H7.508A7.5,7.5,0,0,1,0,55.968V7.506A7.5,7.5,0,0,1,7.508,0H206.689A7.5,7.5,0,0,1,214.2,7.506V55.968a7.5,7.5,0,0,1-7.508,7.506Z"/><path d="M228.16,70.968a6.056,6.056,0,0,1-6.068,6.066H22.911a6.086,6.086,0,0,1-6.1-6.066V22.505a6.115,6.115,0,0,1,6.1-6.1H222.092a6.093,6.093,0,0,1,6.1,6.1l-.034,48.462Z" transform="translate(-15.369 -14.999)"/><path class="b" d="M264.117,136.755a9.17,9.17,0,0,1,4.388-7.712,9.4,9.4,0,0,0-7.439-4.01c-3.12-.343-6.137,1.885-7.748,1.885s-4.08-1.851-6.719-1.782a9.956,9.956,0,0,0-8.331,5.072c-3.6,6.238-.926,15.389,2.537,20.393,1.714,2.468,3.737,5.21,6.377,5.107,2.571-.1,3.531-1.645,6.651-1.645,3.085,0,3.977,1.645,6.685,1.577,2.777-.034,4.525-2.468,6.171-4.97a20.2,20.2,0,0,0,2.811-5.758,8.918,8.918,0,0,1-5.382-8.157Zm-5.074-15.046a9.051,9.051,0,0,0,2.057-6.478,9.32,9.32,0,0,0-5.965,3.085,8.608,8.608,0,0,0-2.126,6.238A7.6,7.6,0,0,0,259.043,121.709Z" transform="translate(-216.293 -105.361)"/><path class="c" d="M1274.117,0H1167.43l41.79,63.474h64.9a7.5,7.5,0,0,0,7.508-7.506V7.506A7.5,7.5,0,0,0,1274.117,0Z" transform="translate(-1067.428)"/><path class="b" d="M804.251,160.853h-3.6l-1.988-6.2h-6.857l-1.885,6.2h-3.5l6.788-21.112h4.217Zm-6.171-8.808-1.783-5.518c-.206-.548-.549-1.885-1.063-3.976h-.069c-.206.891-.549,2.228-.994,3.976l-1.748,5.518Zm23.621.994a8.61,8.61,0,0,1-2.125,6.135,6.2,6.2,0,0,1-4.7,2.022,4.716,4.716,0,0,1-4.354-2.159v7.986h-3.36V150.606c0-1.611-.034-3.29-.137-5h2.983l.206,2.4h.069a6.013,6.013,0,0,1,9.633-.617A8.659,8.659,0,0,1,821.7,153.039Zm-3.428.137a6.424,6.424,0,0,0-.994-3.667A3.476,3.476,0,0,0,814.33,148a3.541,3.541,0,0,0-2.263.823,3.742,3.742,0,0,0-1.337,2.193,5.369,5.369,0,0,0-.171,1.028v2.536a4.06,4.06,0,0,0,1.028,2.81,3.424,3.424,0,0,0,2.64,1.131,3.465,3.465,0,0,0,2.983-1.474A6.328,6.328,0,0,0,818.273,153.176Zm20.981-.137a8.611,8.611,0,0,1-2.125,6.135,6.2,6.2,0,0,1-4.7,2.022,4.716,4.716,0,0,1-4.354-2.159v7.986h-3.394V150.606c0-1.611-.034-3.29-.137-5h2.983l.206,2.4h.069a6.013,6.013,0,0,1,9.633-.617A8.676,8.676,0,0,1,839.254,153.039Zm-3.463.137a6.423,6.423,0,0,0-.994-3.667A3.476,3.476,0,0,0,831.849,148a3.541,3.541,0,0,0-2.263.823,3.742,3.742,0,0,0-1.337,2.193,4.547,4.547,0,0,0-.171,1.028v2.536a4.06,4.06,0,0,0,1.029,2.81,3.424,3.424,0,0,0,2.64,1.131,3.465,3.465,0,0,0,2.982-1.474,6.327,6.327,0,0,0,1.063-3.873Zm23.038,1.748a5.608,5.608,0,0,1-1.886,4.387,8.308,8.308,0,0,1-5.759,1.851,10.392,10.392,0,0,1-5.485-1.3l.788-2.81a9.3,9.3,0,0,0,4.9,1.3,4.611,4.611,0,0,0,2.982-.857,2.781,2.781,0,0,0,1.063-2.3,2.948,2.948,0,0,0-.891-2.159,8.252,8.252,0,0,0-2.914-1.645q-5.554-2.056-5.554-6.066a5.283,5.283,0,0,1,1.954-4.25,7.813,7.813,0,0,1,5.177-1.645,10.487,10.487,0,0,1,4.8.994l-.857,2.742a8.3,8.3,0,0,0-4.045-.96,4.188,4.188,0,0,0-2.811.891,2.572,2.572,0,0,0-.857,1.919,2.517,2.517,0,0,0,.96,2.056,10.951,10.951,0,0,0,3.085,1.645,10.138,10.138,0,0,1,4.011,2.571A4.967,4.967,0,0,1,858.829,154.924Zm11.21-6.752H866.3v7.4c0,1.885.651,2.81,1.988,2.81a4.807,4.807,0,0,0,1.508-.171l.1,2.571a7.841,7.841,0,0,1-2.64.377,4,4,0,0,1-3.12-1.234,6.021,6.021,0,0,1-1.131-4.113v-7.677h-2.228V145.6h2.228v-2.776l3.325-.994v3.8h3.737Zm16.8,4.935a8.368,8.368,0,0,1-2.023,5.758,7.193,7.193,0,0,1-5.588,2.331,6.882,6.882,0,0,1-5.348-2.228,8.054,8.054,0,0,1-1.988-5.621,8.259,8.259,0,0,1,2.057-5.792,7.111,7.111,0,0,1,5.52-2.262,6.956,6.956,0,0,1,5.382,2.228A7.91,7.91,0,0,1,886.838,153.108Zm-3.5.069a7,7,0,0,0-.891-3.6,3.373,3.373,0,0,0-3.051-1.816,3.439,3.439,0,0,0-3.12,1.816,6.846,6.846,0,0,0-.891,3.667,7,7,0,0,0,.891,3.6,3.484,3.484,0,0,0,6.136-.034A6.9,6.9,0,0,0,883.341,153.176Zm14.5-4.593a5.583,5.583,0,0,0-1.063-.1,3.133,3.133,0,0,0-2.743,1.337,5.146,5.146,0,0,0-.857,3.016v7.986h-3.394V150.4c0-1.611-.034-3.187-.1-4.8h2.948l.137,2.913h.1a5.1,5.1,0,0,1,1.68-2.4,4.244,4.244,0,0,1,2.434-.823,6.681,6.681,0,0,1,.857.069ZM913,152.525a7.82,7.82,0,0,1-.137,1.542H902.71a4.362,4.362,0,0,0,1.474,3.462,4.967,4.967,0,0,0,3.325,1.062,11.268,11.268,0,0,0,4.114-.72l.514,2.331a12.946,12.946,0,0,1-5.108.925,7.29,7.29,0,0,1-5.554-2.091,7.76,7.76,0,0,1-2.023-5.587,8.6,8.6,0,0,1,1.886-5.724,6.4,6.4,0,0,1,5.314-2.433,5.648,5.648,0,0,1,4.971,2.433A8.014,8.014,0,0,1,913,152.525Zm-3.223-.891a4.606,4.606,0,0,0-.651-2.6,2.908,2.908,0,0,0-2.708-1.405,3.226,3.226,0,0,0-2.708,1.371,5.135,5.135,0,0,0-.994,2.639ZM790.847,132.269a16.985,16.985,0,0,1-2.434-.137V121.919a20.34,20.34,0,0,1,2.88-.206c3.874,0,5.657,1.919,5.657,5.038C796.949,130.316,794.824,132.269,790.847,132.269Zm.548-9.254a7.577,7.577,0,0,0-1.337.1v7.746a9.092,9.092,0,0,0,1.131.034c2.537,0,3.977-1.439,3.977-4.147C795.166,124.352,793.864,123.016,791.4,123.016Zm11.108,9.322a3.558,3.558,0,0,1-3.6-3.839,3.637,3.637,0,0,1,3.737-3.941,3.522,3.522,0,0,1,3.6,3.839A3.674,3.674,0,0,1,802.5,132.338Zm.068-6.58c-1.2,0-1.988,1.131-1.988,2.708,0,1.542.788,2.673,1.954,2.673s1.954-1.2,1.954-2.708C804.526,126.888,803.737,125.757,802.571,125.757Zm16.147-1.062-2.331,7.472h-1.543l-.96-3.256c-.24-.788-.446-1.611-.617-2.433h-.034a14.881,14.881,0,0,1-.617,2.433l-1.029,3.256h-1.543l-2.194-7.472h1.714l.857,3.564c.206.857.377,1.645.514,2.4h.034c.137-.617.309-1.405.617-2.4l1.063-3.564h1.371l1.029,3.5q.36,1.285.617,2.468h.034a19.9,19.9,0,0,1,.514-2.468l.926-3.5Zm8.6,7.472h-1.646v-4.284c0-1.337-.514-1.988-1.508-1.988a1.736,1.736,0,0,0-1.68,1.816v4.456h-1.68V126.82c0-.651,0-1.371-.069-2.125h1.474l.069,1.165h.034a2.722,2.722,0,0,1,2.365-1.3c1.577,0,2.605,1.2,2.605,3.153Zm4.594,0h-1.68V121.233h1.68Zm6.068.171a3.558,3.558,0,0,1-3.6-3.839,3.637,3.637,0,0,1,3.737-3.941,3.522,3.522,0,0,1,3.6,3.839A3.674,3.674,0,0,1,837.985,132.338Zm.069-6.58c-1.2,0-1.988,1.131-1.988,2.708,0,1.542.789,2.673,1.954,2.673s1.954-1.2,1.954-2.708C839.974,126.888,839.219,125.757,838.054,125.757Zm10.216,6.409-.137-.857H848.1a2.566,2.566,0,0,1-2.194,1.028,2.171,2.171,0,0,1-2.3-2.193c0-1.851,1.611-2.81,4.388-2.81V127.2c0-.994-.514-1.474-1.543-1.474a3.43,3.43,0,0,0-1.954.548l-.343-1.1a4.623,4.623,0,0,1,2.571-.651c1.954,0,2.948,1.028,2.948,3.085v2.742a12.121,12.121,0,0,0,.1,1.782Zm-.24-3.736c-1.851,0-2.777.446-2.777,1.508a1.054,1.054,0,0,0,1.131,1.165,1.6,1.6,0,0,0,1.646-1.508Zm9.7,3.736-.069-1.2h-.034a2.525,2.525,0,0,1-2.4,1.371c-1.817,0-3.154-1.577-3.154-3.8,0-2.331,1.371-3.976,3.291-3.976a2.288,2.288,0,0,1,2.126,1.028h.034v-4.353h1.68v8.911c0,.72.034,1.405.069,2.022Zm-.24-4.387a1.808,1.808,0,0,0-1.748-1.954c-1.234,0-1.988,1.1-1.988,2.639,0,1.508.789,2.536,1.954,2.536a1.864,1.864,0,0,0,1.783-1.988V127.78Zm12.239,4.558a3.558,3.558,0,0,1-3.6-3.839,3.637,3.637,0,0,1,3.737-3.941,3.522,3.522,0,0,1,3.6,3.839A3.674,3.674,0,0,1,869.731,132.338Zm.069-6.58c-1.2,0-1.954,1.131-1.954,2.708,0,1.542.789,2.673,1.954,2.673s1.954-1.2,1.954-2.708C871.719,126.888,870.965,125.757,869.8,125.757Zm12.616,6.409h-1.68v-4.284c0-1.337-.514-1.988-1.508-1.988a1.709,1.709,0,0,0-1.646,1.816v4.456H875.9V126.82c0-.651,0-1.371-.068-2.125h1.474l.068,1.165h.034a2.722,2.722,0,0,1,2.366-1.3c1.577,0,2.605,1.2,2.605,3.153v4.456Zm11.176-6.238h-1.817v3.633c0,.925.308,1.371.96,1.371a4.368,4.368,0,0,0,.754-.069l.034,1.268a3.42,3.42,0,0,1-1.3.171c-1.3,0-2.091-.72-2.091-2.6v-3.77h-1.1v-1.234h1.1v-1.371l1.646-.48v1.851h1.817Zm8.81,6.238h-1.646v-4.25c0-1.337-.514-2.022-1.508-2.022a1.646,1.646,0,0,0-1.68,1.782V132.2h-1.646V121.233h1.646v4.49h.034a2.5,2.5,0,0,1,2.263-1.234c1.577,0,2.537,1.234,2.537,3.187Zm9.016-3.325h-5.005a2.161,2.161,0,0,0,2.366,2.228,6.251,6.251,0,0,0,2.023-.343l.274,1.165a6.278,6.278,0,0,1-2.5.446,3.484,3.484,0,0,1-3.737-3.77c0-2.3,1.406-4.01,3.531-4.01,1.92,0,3.12,1.405,3.12,3.564A2.815,2.815,0,0,1,911.418,128.842Zm-1.508-1.2c0-1.165-.583-1.988-1.646-1.988a1.962,1.962,0,0,0-1.817,1.988Z" transform="translate(-719.059 -110.848)"/></svg>