<svg xmlns="http://www.w3.org/2000/svg" width="107" height="89.293" viewBox="0 0 107 89.293"><defs><style>.a{fill:#fff;stroke:#e4e4e4;}.b{stroke:none;}.c{fill:none;}</style></defs><g class="a"><rect class="b" width="107" height="89.293" rx="6"/><rect class="c" x="0.5" y="0.5" width="106" height="88.293" rx="5.5"/></g><path d="M11.033,59.187a1.02,1.02,0,0,1,.07-.151,1.249,1.249,0,0,0,.153-.506.666.666,0,0,0-.1-.355.063.063,0,0,1-.029-.046c0-.035-10.013-10.092-10.066-10.111-.021-.008-.037-.024-.037-.035s-.035-.03-.078-.038a.2.2,0,0,1-.091-.035.862.862,0,0,0-.375,0,2.551,2.551,0,0,0-.426.172L0,48.118V46.191l2.118-2.129c1.165-1.171,2.129-2.129,2.142-2.129A.049.049,0,0,0,4.3,41.9c.013-.032.056-.059.257-.159a.66.66,0,0,1,.552-.011c.115.062.287.218.287.261a.063.063,0,0,0,.029.046c.078.046.1.393.027.506a.87.87,0,0,0-.056.14.216.216,0,0,1-.046.094c-.008,0-.029.04-.046.089s-.037.089-.046.089a.322.322,0,0,0-.046.124.413.413,0,0,1-.046.135.816.816,0,0,0,0,.342c.011,0,.027.035.035.078a.151.151,0,0,0,.046.092.056.056,0,0,1,.032.048c0,.048,9.994,10.092,10.042,10.092a.064.064,0,0,1,.054.03.67.67,0,0,0,.343.126,1.623,1.623,0,0,0,.439-.113.346.346,0,0,1,.094-.043c.046-.016.083-.035.083-.043s.04-.027.088-.043.088-.038.088-.046a.392.392,0,0,1,.15-.043.6.6,0,0,1,.276,0c.07.013.126.035.126.048s.013.022.029.022a.91.91,0,0,1,.281.312.45.45,0,0,1,.054.266.6.6,0,0,1-.1.353.713.713,0,0,1-.126.2.046.046,0,0,0-.029.038c0,.013-.953.982-2.118,2.153l-2.118,2.129h-.956c-.517-.005-.948-.013-.948-.022Zm18.748-.008a.4.4,0,0,1,.046-.1.31.31,0,0,0,.037-.221.423.423,0,0,0-.029-.159.268.268,0,0,1-.051-.073c-.016-.032-1.285-1.319-2.82-2.858-2.089-2.1-2.814-2.812-2.887-2.847a.458.458,0,0,0-.458.035.679.679,0,0,1-.292.092l-.139.011-.11-.11c-.139-.14-.158-.223-.088-.377a14.523,14.523,0,0,1,1.366-1.437c.726-.729,1.326-1.324,1.336-1.321s1.644,1.642,3.631,3.639l3.615,3.631-1.055,1.063-1.055,1.063H30.3A1.864,1.864,0,0,1,29.781,59.179Zm26.455-.745a.707.707,0,0,1-.11-.04,1.2,1.2,0,0,0-.139-.046c-.04-.008-.072-.022-.072-.032s-.04-.03-.088-.046-.088-.038-.088-.048-.016-.019-.035-.019a2.138,2.138,0,0,1-.453-.455c0-.019-.008-.035-.019-.035a.918.918,0,0,1-.15-.3.351.351,0,0,0-.032-.089,2.043,2.043,0,0,1,0-1A.79.79,0,0,0,55.1,56.2a.847.847,0,0,1,.091-.194.494.494,0,0,0,.064-.116,2.524,2.524,0,0,1,.423-.425,1.647,1.647,0,0,1,.412-.188.311.311,0,0,0,.112-.04,2.131,2.131,0,0,1,.667,0,.311.311,0,0,0,.112.04,1.739,1.739,0,0,1,.41.188,2.3,2.3,0,0,1,.41.414c.019.035.054.1.075.143a.665.665,0,0,0,.051.089.356.356,0,0,1,.04.089c.016.043.037.1.048.121a1.708,1.708,0,0,1,.064.5,1.749,1.749,0,0,1-.064.5.775.775,0,0,0-.046.116.216.216,0,0,1-.046.094c-.008,0-.027.04-.043.089a.2.2,0,0,1-.059.1.052.052,0,0,0-.029.048,1.732,1.732,0,0,1-.407.409.059.059,0,0,0-.048.03.2.2,0,0,1-.1.059c-.048.016-.088.035-.088.046a.267.267,0,0,1-.1.043.487.487,0,0,0-.137.051,2.944,2.944,0,0,1-.669.024Zm.707-.256a1.113,1.113,0,0,0,.485-.3,1.534,1.534,0,0,0-.019-2.115,1.057,1.057,0,0,0-.187-.156.219.219,0,0,1-.08-.038,1.121,1.121,0,0,0-.6-.14,1.183,1.183,0,0,0-.621.14,1.605,1.605,0,0,0-.522.549,1.535,1.535,0,0,0-.163.71,1.372,1.372,0,0,0,.881,1.348,1.43,1.43,0,0,0,.83.005Zm-.983-1.356v-.937l.439.013a1.388,1.388,0,0,1,.552.062.382.382,0,0,1,.252.28.5.5,0,0,1-.021.412c-.062.137-.107.172-.362.264l-.062.022.059.1c.032.059.078.132.1.164a.258.258,0,0,1,.043.073.513.513,0,0,0,.067.11.592.592,0,0,1,.067.11.814.814,0,0,0,.078.124.814.814,0,0,1,.078.124c0,.008-.051.011-.115.005-.123-.008-.126-.011-.244-.24-.016-.03-.07-.126-.121-.21s-.115-.2-.147-.256l-.056-.1-.19-.005-.19-.005v.824h-.222Zm.932-.132c.086-.057.166-.326.107-.363a.067.067,0,0,1-.021-.054c0-.054-.123-.156-.185-.156a.116.116,0,0,1-.072-.024.819.819,0,0,0-.276-.016l-.252.005-.005.331-.005.331.327-.008c.26-.008.337-.016.383-.046Zm-23.708-.366-.249-.25.029-.067c.016-.038.035-.067.046-.067s.029-.048.046-.1a.468.468,0,0,1,.048-.126,1.372,1.372,0,0,0,0-.444.192.192,0,0,1-.035-.094.725.725,0,0,0-.137-.285.118.118,0,0,1-.032-.051c-.021-.075-.538-.608-2.5-2.584-1.176-1.184-2.145-2.153-2.153-2.153a1.2,1.2,0,0,1-.153-.126,2.109,2.109,0,0,0-.324-.229l-.185-.1h-.3c-.273,0-.308.005-.4.054a1.085,1.085,0,0,0-.139.089c-.037.032-.059.016-.295-.223a1.269,1.269,0,0,1-.241-.283c.008-.013.107-.1.22-.2l.252-.223a.191.191,0,0,1,.062-.043.335.335,0,0,0,.088-.057.3.3,0,0,1,.1-.057.025.025,0,0,0,.027-.022c0-.022.024-.038.212-.135.059-.032.129-.067.153-.081a3.175,3.175,0,0,1,.442-.2.267.267,0,0,0,.088-.032,4.248,4.248,0,0,1,.728-.167,3.9,3.9,0,0,1,.463-.038,5.273,5.273,0,0,1,.919.1c.054.016.153.04.22.054a.56.56,0,0,1,.145.043.6.6,0,0,0,.134.046.87.87,0,0,1,.134.043.767.767,0,0,0,.115.046c.051.016.094.038.094.048s.019.019.037.019a4.95,4.95,0,0,1,.667.328.278.278,0,0,0,.067.046,1.779,1.779,0,0,1,.236.143.515.515,0,0,0,.107.062,1.2,1.2,0,0,1,.166.121.862.862,0,0,0,.174.121c.013,0,.032.019.046.046s.035.046.048.046a3.025,3.025,0,0,1,.439.347,10.645,10.645,0,0,1,.752.77.54.54,0,0,0,.088.126.6.6,0,0,1,.088.126c0,.011.019.032.046.048s.046.038.046.048a.582.582,0,0,0,.078.129.693.693,0,0,1,.078.124.707.707,0,0,0,.062.108,4.741,4.741,0,0,1,.281.565c.016.04.046.1.062.145a1.181,1.181,0,0,1,.056.172.44.44,0,0,0,.043.121,5.356,5.356,0,0,1,.179.877,4,4,0,0,1,0,.912c-.013.081-.037.229-.051.334a.848.848,0,0,1-.043.21.788.788,0,0,0-.043.167.732.732,0,0,1-.046.167.35.35,0,0,0-.032.089.917.917,0,0,1-.059.159.624.624,0,0,0-.043.108.917.917,0,0,1-.056.135.78.78,0,0,0-.056.14.032.032,0,0,1-.016.027.347.347,0,0,0-.056.086c-.021.043-.064.118-.094.167s-.067.113-.083.145a2.322,2.322,0,0,1-.238.323.167.167,0,0,0-.046.065.884.884,0,0,1-.131.156l-.131.137ZM17.963,53.629c-.2-.075-.41-.245-.41-.326,0-.019-.008-.035-.021-.035s-.032-.057-.048-.124a.606.606,0,0,1,0-.269.5.5,0,0,1,.043-.159.346.346,0,0,0,.051-.092.442.442,0,0,1,.043-.089,2.024,2.024,0,0,0,.2-.619.982.982,0,0,0-.129-.366c-.019-.027-1.066-1.085-2.324-2.352-1.521-1.534-2.3-2.306-2.332-2.306a7.525,7.525,0,0,0-.782.74l-.736.74-.477-.476-.477-.476.742-.748c.41-.412.742-.762.742-.78s-4.314-4.376-4.435-4.47a.959.959,0,0,0-.375-.129,1.641,1.641,0,0,0-.431.113.346.346,0,0,1-.094.043c-.046.016-.083.038-.083.048a.021.021,0,0,1-.021.019,1.049,1.049,0,0,0-.15.059.6.6,0,0,1-.295.062.447.447,0,0,1-.284-.065.663.663,0,0,1-.321-.791c.013-.03.043-.089.062-.132s.051-.108.07-.145,1.192-1.227,2.6-2.646l2.568-2.578.19-.091a.605.605,0,0,1,.34-.091.521.521,0,0,1,.27.059.793.793,0,0,1,.362.4.78.78,0,0,1-.054.49.649.649,0,0,0-.056.135.037.037,0,0,1-.016.03,1.786,1.786,0,0,0-.171.428.546.546,0,0,0,.056.452c.067.143.332.412,5.059,5.162,3.931,3.951,5.016,5.027,5.115,5.084.26.145.434.135.83-.057a1.37,1.37,0,0,1,.238-.1c.019,0,.035-.008.035-.019,0-.027.179-.07.3-.07a.518.518,0,0,1,.423.191.6.6,0,0,1,.139.172.218.218,0,0,0,.035.092.338.338,0,0,1,.027.215.73.73,0,0,1-.035.2c-.013.024-.04.081-.059.121s-.051.108-.07.145c-.043.078-5.069,5.143-5.107,5.143a.045.045,0,0,0-.037.032.2.2,0,0,1-.086.067c-.04.019-.088.043-.107.054a.667.667,0,0,1-.332.1.529.529,0,0,1-.182-.005Zm18.569-.573a.366.366,0,0,1-.185-.285.972.972,0,0,1,.129-.358c.054-.1.054-.428,0-.458a.07.07,0,0,1-.037-.048c0-.03-5.573-5.638-5.6-5.638a.2.2,0,0,1-.075-.046.5.5,0,0,0-.487.038.588.588,0,0,1-.305.083c-.118,0-.145-.008-.2-.059-.112-.113-.185-.323-.123-.361a.19.19,0,0,0,.035-.083,14.205,14.205,0,0,1,1.344-1.41l1.331-1.34,3.626,3.644,3.626,3.644-1.3,1.308c-1.363,1.364-1.433,1.426-1.609,1.426a.38.38,0,0,1-.166-.057Zm3.313-3.439-.252-.253.054-.075a3.417,3.417,0,0,0,.329-.641.1.1,0,0,1,.019-.057,1.508,1.508,0,0,0,.08-.266,2.018,2.018,0,0,0,.062-.657,2.7,2.7,0,0,0-.249-1.243,2.325,2.325,0,0,1-.177-.519.392.392,0,0,1,.262-.32c.171-.057.163-.065,1.283,1.063l1.036,1.042-1.087,1.093c-.6.6-1.093,1.093-1.1,1.093s-.123-.118-.262-.258Zm2.753-2.57a.731.731,0,0,1-.185-.183c-.072-.1-.064-.215.027-.4a.55.55,0,0,0,.078-.288v-.132l-2.737-2.75c-1.5-1.512-2.814-2.823-2.911-2.912l-.174-.159h-.2a.527.527,0,0,0-.212.024.25.25,0,0,1-.094.054.24.24,0,0,0-.088.048.4.4,0,0,1-.257.038.475.475,0,0,1-.163-.121c-.094-.1-.094-.1-.086-.242a.418.418,0,0,1,.067-.226c.032-.048.64-.667,1.35-1.381L38.3,37.121,41.51,40.34c1.762,1.771,3.238,3.24,3.275,3.267a.313.313,0,0,0,.217.048.6.6,0,0,0,.337-.092c.158-.078.2-.089.287-.081a.22.22,0,0,1,.112.032.142.142,0,0,0,.054.035.094.094,0,0,1,.051.059.079.079,0,0,0,.04.054c.043.016.059.156.032.269a.225.225,0,0,1-.04.1c-.008,0-.027.027-.04.062-.037.086-2.876,2.931-2.954,2.96a.527.527,0,0,1-.284-.011Zm-4.161-.328a1.633,1.633,0,0,1-.222-.1,2.082,2.082,0,0,0-.991-.323,1.43,1.43,0,0,0-.493.113c-.048.03-.062.016-.335-.256l-.287-.285.035-.081.059-.135a2.668,2.668,0,0,0,0-.716.565.565,0,0,1-.051-.135,2.872,2.872,0,0,0-.273-.573.724.724,0,0,1-.078-.245.231.231,0,0,1,.059-.218A.5.5,0,0,1,36,43.631a.2.2,0,0,1,.182-.008c.1.027.19.113,1.371,1.3,1.355,1.359,1.409,1.418,1.352,1.561a.534.534,0,0,1-.238.242c-.088.043-.094.043-.236-.005ZM24.465,44.326a7.669,7.669,0,0,1-1.414-.253c-.072-.022-.158-.046-.187-.051a3.439,3.439,0,0,1-.353-.116c-.043-.016-.161-.062-.265-.1s-.23-.089-.281-.113a.747.747,0,0,0-.1-.043c-.046,0-1.066-.514-1.093-.549a.217.217,0,0,0-.067-.046,1.97,1.97,0,0,1-.257-.153.3.3,0,0,0-.094-.051.024.024,0,0,1-.024-.022c0-.013-.011-.022-.027-.022a.3.3,0,0,1-.094-.051.708.708,0,0,0-.107-.067c-.021-.008-.037-.024-.037-.038a.027.027,0,0,0-.029-.024.3.3,0,0,1-.1-.065.358.358,0,0,0-.1-.067.049.049,0,0,1-.037-.035.049.049,0,0,0-.037-.032.523.523,0,0,1-.131-.089.529.529,0,0,0-.129-.089c-.013,0-.035-.019-.048-.046s-.035-.046-.048-.046a2.981,2.981,0,0,1-.423-.344.341.341,0,0,0-.107-.078c-.032,0-1.478-1.456-1.478-1.486a.343.343,0,0,0-.078-.108,3.208,3.208,0,0,1-.343-.425c0-.013-.019-.035-.046-.048s-.046-.035-.046-.048a.483.483,0,0,0-.088-.129.526.526,0,0,1-.088-.132.05.05,0,0,0-.032-.038c-.019-.008-.035-.024-.035-.038a.307.307,0,0,0-.067-.1.284.284,0,0,1-.064-.1.05.05,0,0,0-.032-.038A.049.049,0,0,1,16.434,39a.276.276,0,0,0-.056-.1.259.259,0,0,1-.056-.1.025.025,0,0,0-.021-.027c-.011,0-.037-.032-.056-.073s-.059-.113-.088-.161-.067-.116-.083-.151-.035-.062-.043-.062a.759.759,0,0,1-.1-.161c-.043-.089-.126-.245-.179-.35s-.145-.293-.2-.423c-.048-.11-.094-.218-.142-.326a.477.477,0,0,1-.04-.11.547.547,0,0,0-.043-.108,3.333,3.333,0,0,1-.145-.412c-.016-.054-.04-.129-.054-.167-.024-.075-.1-.334-.147-.533-.019-.073-.048-.229-.067-.344s-.043-.245-.054-.288c-.019-.075-.054-.444-.086-.912a8.629,8.629,0,0,1,.064-1.222c.024-.2.1-.589.137-.732.086-.326.185-.638.292-.934a8.526,8.526,0,0,1,.782-1.523.3.3,0,0,0,.051-.083.125.125,0,0,1,.021-.043,1.917,1.917,0,0,0,.2-.277,1.317,1.317,0,0,1,.145-.194c.08-.1.166-.2.19-.237L16.7,28.9l.479.482c.362.363.477.49.461.514a3.132,3.132,0,0,0-.174.554,1.941,1.941,0,0,0,.027.719.969.969,0,0,0,.064.191.422.422,0,0,1,.046.094c.016.046.037.083.048.083s.027.022.037.051a.679.679,0,0,0,.11.153.8.8,0,0,1,.091.113c0,.013,9.311,9.371,9.324,9.371a.915.915,0,0,1,.112.089,1.528,1.528,0,0,0,1.4.3,1.605,1.605,0,0,0,.445-.153,4.8,4.8,0,0,1,.5.468l.487.487-.051.048a.2.2,0,0,1-.064.048,1.434,1.434,0,0,0-.187.145,1.368,1.368,0,0,1-.19.145,1.25,1.25,0,0,0-.158.11,1.251,1.251,0,0,1-.158.11.411.411,0,0,0-.1.067.632.632,0,0,1-.1.067.609.609,0,0,0-.121.073,5.14,5.14,0,0,1-.605.331,2.052,2.052,0,0,1-.493.221c-.021,0-.037.011-.037.022a.022.022,0,0,1-.024.022,1.025,1.025,0,0,0-.161.054,5.5,5.5,0,0,1-.712.226l-.244.065a6.214,6.214,0,0,1-1.028.156,6.5,6.5,0,0,1-1.253,0Zm8.647-1.472-.257-.258,1.06-1.066,1.06-1.066,1,1a12.722,12.722,0,0,1,1.02,1.074.314.314,0,0,1-.086.318.365.365,0,0,1-.313.145,1.29,1.29,0,0,1-.254-.1,2.951,2.951,0,0,0-1.352-.347,2.357,2.357,0,0,0-1.127.266,2.326,2.326,0,0,0-.415.237l-.075.057ZM30.507,41.1a5.02,5.02,0,0,1-.458-.5.245.245,0,0,1,.029-.089,1.308,1.308,0,0,0,.059-.156c.016-.054.037-.121.048-.145a2.01,2.01,0,0,0,0-.977c-.011-.024-.032-.081-.048-.121a.987.987,0,0,0-.091-.172.446.446,0,0,1-.062-.118c0-.03-9.124-9.228-9.445-9.524a2.954,2.954,0,0,0-.265-.229.673.673,0,0,1-.11-.062,1.215,1.215,0,0,0-.171-.092l-.15-.059a2.21,2.21,0,0,0-.943.011.325.325,0,0,1-.11.035.646.646,0,0,0-.166.059.335.335,0,0,1-.112.043,10.582,10.582,0,0,1-.951-.95c0-.016.027-.046.062-.067.059-.038.311-.24.383-.307a.107.107,0,0,1,.054-.032.773.773,0,0,0,.139-.094,1.432,1.432,0,0,1,.27-.178.211.211,0,0,0,.072-.057.055.055,0,0,1,.04-.027.4.4,0,0,0,.115-.062,1.58,1.58,0,0,1,.182-.1.686.686,0,0,0,.1-.059,4.768,4.768,0,0,1,.525-.261.928.928,0,0,0,.147-.065,1.9,1.9,0,0,1,.206-.092A1.1,1.1,0,0,0,20,26.6a.374.374,0,0,1,.091-.032.242.242,0,0,0,.088-.03.784.784,0,0,1,.166-.057.514.514,0,0,0,.131-.046.771.771,0,0,1,.166-.046.723.723,0,0,0,.166-.046,1.087,1.087,0,0,1,.177-.043,1.273,1.273,0,0,0,.212-.048,2.854,2.854,0,0,1,.321-.054l.453-.057a10.852,10.852,0,0,1,1.459.022c.067.013.222.04.343.057a4.584,4.584,0,0,1,.64.124,1.181,1.181,0,0,0,.187.046.637.637,0,0,1,.166.043.661.661,0,0,0,.131.043.6.6,0,0,1,.134.046.6.6,0,0,0,.134.046.6.6,0,0,1,.134.046.362.362,0,0,0,.1.035.478.478,0,0,1,.121.043.861.861,0,0,0,.139.057c.054.016.094.038.094.048s.016.019.037.019a3.077,3.077,0,0,1,.643.3,7.231,7.231,0,0,1,.669.358c.137.089.177.113.26.159.04.022.072.046.072.057a.022.022,0,0,0,.024.019.933.933,0,0,1,.238.161.043.043,0,0,0,.035.016.331.331,0,0,1,.1.065.358.358,0,0,0,.1.067.049.049,0,0,1,.037.035.049.049,0,0,0,.037.032,1.724,1.724,0,0,1,.321.245.166.166,0,0,0,.064.046.981.981,0,0,1,.169.135,1.536,1.536,0,0,0,.163.135.391.391,0,0,1,.086.078.264.264,0,0,0,.1.078c.037,0,1.355,1.321,1.355,1.362a.3.3,0,0,0,.088.11.5.5,0,0,1,.088.1,1.23,1.23,0,0,0,.134.164,1.166,1.166,0,0,1,.134.17.189.189,0,0,0,.046.065,1.481,1.481,0,0,1,.22.3.079.079,0,0,0,.046.051c.024.016.046.038.046.051a.305.305,0,0,0,.067.1.306.306,0,0,1,.064.1.048.048,0,0,0,.016.035.894.894,0,0,1,.161.24c0,.013.008.024.019.024s.035.032.056.073.056.1.08.14.062.1.083.145a.665.665,0,0,0,.051.089,9.2,9.2,0,0,1,.594,1.211c0,.019.008.032.021.032s.027.032.035.073a.387.387,0,0,0,.043.116.866.866,0,0,1,.056.145.607.607,0,0,0,.046.121.882.882,0,0,1,.043.121,1.339,1.339,0,0,0,.056.167.822.822,0,0,1,.046.156.4.4,0,0,0,.032.11.772.772,0,0,1,.043.156,1.145,1.145,0,0,0,.046.178,4.482,4.482,0,0,1,.123.667c.019.135.046.3.059.366a11.479,11.479,0,0,1,0,1.577c-.013.067-.04.226-.059.355a4.132,4.132,0,0,1-.123.646.819.819,0,0,0-.046.167.678.678,0,0,1-.043.153.887.887,0,0,0-.046.151.414.414,0,0,1-.048.14.24.24,0,0,0-.04.1,1.44,1.44,0,0,1-.059.172c-.019.043-.048.108-.062.145s-.054.124-.086.191a.87.87,0,0,0-.059.145,2.693,2.693,0,0,1-.193.382,1.085,1.085,0,0,0-.078.137,1.819,1.819,0,0,1-.094.167,1.432,1.432,0,0,0-.088.161c-.019.04-.043.073-.056.073a.024.024,0,0,0-.021.024.276.276,0,0,1-.056.1.338.338,0,0,0-.056.089,1.076,1.076,0,0,1-.11.159,1,1,0,0,0-.11.159.844.844,0,0,1-.112.151,2.7,2.7,0,0,0-.166.215c-.029.046-.067.083-.08.083a5.025,5.025,0,0,1-.509-.476ZM43,40.832l-.257-.261.064-.118a.971.971,0,0,0,.1-.71.419.419,0,0,0-.059-.161c-.011,0-.019-.011-.019-.027a.259.259,0,0,0-.056-.1.329.329,0,0,1-.056-.1c0-.013-.019-.032-.046-.046s-.046-.035-.046-.051c0-.035-1.944-1.983-2-2-.021-.008-.037-.022-.037-.032a.711.711,0,0,0-.241-.159.022.022,0,0,1-.024-.019c0-.011-.051-.032-.11-.046a.33.33,0,0,1-.123-.046,1.091,1.091,0,0,0-.418,0,.191.191,0,0,1-.1.035.548.548,0,0,0-.166.07.472.472,0,0,1-.1.054,2.825,2.825,0,0,1-.265-.25l-.249-.25.171-.167c.206-.2.461-.436.549-.506.035-.027.129-.1.209-.17a2.329,2.329,0,0,1,.2-.148,1.256,1.256,0,0,0,.145-.094,2.669,2.669,0,0,1,.431-.261c.043-.016.123-.048.177-.073s.121-.051.145-.062a1.126,1.126,0,0,1,.145-.043,1.125,1.125,0,0,0,.145-.043,3.433,3.433,0,0,1,1.326,0,1.052,1.052,0,0,0,.15.046.366.366,0,0,1,.118.046.056.056,0,0,0,.046.019,2.07,2.07,0,0,1,.463.234.437.437,0,0,0,.088.057,1.26,1.26,0,0,1,.177.135,1.471,1.471,0,0,0,.179.135.121.121,0,0,1,.059.046c.062.07.12.059.12-.022,0-.038-.011-.067-.021-.067a.024.024,0,0,1-.021-.024.744.744,0,0,0-.054-.14,3.023,3.023,0,0,1-.169-.412.355.355,0,0,0-.032-.1,4.206,4.206,0,0,1-.236-1.136,4.066,4.066,0,0,1,.07-1.133,5.29,5.29,0,0,1,.166-.584.555.555,0,0,0,.032-.086,1.188,1.188,0,0,1,.067-.159.917.917,0,0,0,.067-.164.019.019,0,0,1,.019-.022c.011,0,.032-.038.048-.083a.957.957,0,0,1,.088-.172,1.121,1.121,0,0,0,.072-.124,4.556,4.556,0,0,1,.34-.49.214.214,0,0,0,.054-.083c0-.062.064-.013.3.229l.254.256-.051.129a.84.84,0,0,0-.051.374.572.572,0,0,0,.075.385,1.107,1.107,0,0,0,.126.188.2.2,0,0,1,.051.07c0,.03,5.134,5.189,5.163,5.189a.319.319,0,0,1,.1.083.637.637,0,0,0,.375.2.307.307,0,0,1,.123.032c.016.024.131.024.182,0a1.013,1.013,0,0,1,.193-.046.721.721,0,0,0,.182-.048c.021-.019.091.038.287.237l.26.261-.1.086a1.078,1.078,0,0,1-.161.121,1.314,1.314,0,0,0-.158.1,1.345,1.345,0,0,1-.319.194.024.024,0,0,0-.024.022.021.021,0,0,1-.021.022.371.371,0,0,0-.1.054.556.556,0,0,1-.155.07c-.04.008-.072.022-.072.03a.214.214,0,0,1-.094.046.98.98,0,0,0-.139.057.4.4,0,0,1-.129.043.216.216,0,0,0-.094.032.37.37,0,0,1-.139.043,1.2,1.2,0,0,0-.182.048,5.231,5.231,0,0,1-.919.108,5.408,5.408,0,0,1-.935-.108.572.572,0,0,0-.126-.035,2.8,2.8,0,0,1-.487-.145.963.963,0,0,0-.161-.057c-.04-.008-.072-.024-.072-.032s-.027-.024-.062-.032a3.754,3.754,0,0,1-.643-.328.042.042,0,0,0-.032-.016.273.273,0,0,1-.1-.057.366.366,0,0,0-.094-.057.535.535,0,0,1-.129-.086.984.984,0,0,0-.147-.1c-.021-.008-.037-.024-.037-.038a.024.024,0,0,0-.024-.024.612.612,0,0,1-.142-.1.894.894,0,0,0-.131-.1.377.377,0,0,1-.088-.078.318.318,0,0,0-.094-.078,5.154,5.154,0,0,1-.386-.366,2.936,2.936,0,0,0-.4-.366c-.032,0-.037.013-.024.1a1.609,1.609,0,0,0,.054.218,1.85,1.85,0,0,1,.037.584,2.083,2.083,0,0,1-.062.7,1.4,1.4,0,0,1-.083.256.089.089,0,0,0-.021.054,2.781,2.781,0,0,1-.268.562.247.247,0,0,0-.04.083.024.024,0,0,1-.021.024c-.013,0-.021.013-.021.03a.306.306,0,0,1-.064.1.42.42,0,0,0-.067.094.157.157,0,0,1-.035.057c-.161.186-.321.382-.321.393a4.179,4.179,0,0,1-.423.463l-.185.194Zm9.156-3.267c-.129-.129-.241-.248-.249-.264a.34.34,0,0,1,.032-.156.885.885,0,0,0,.051-.39.753.753,0,0,0-.024-.277.252.252,0,0,1-.054-.094.25.25,0,0,0-.059-.1.063.063,0,0,1-.029-.046c0-.013-1.21-1.243-2.691-2.732A34.755,34.755,0,0,0,46.3,30.735c-.08-.038-.161-.081-.182-.092a1.19,1.19,0,0,0-.426,0,.494.494,0,0,1-.147.046.376.376,0,0,0-.139.048,4.673,4.673,0,0,1-.541-.522c0-.005.011-.011.024-.011a.529.529,0,0,0,.129-.089.6.6,0,0,1,.126-.089c.011,0,.032-.019.048-.046s.037-.046.051-.046a.27.27,0,0,0,.094-.054,5.42,5.42,0,0,1,.937-.479.616.616,0,0,0,.129-.043.6.6,0,0,1,.134-.046,1.421,1.421,0,0,0,.155-.048,4.622,4.622,0,0,1,.619-.108,4.13,4.13,0,0,1,.774,0,5.553,5.553,0,0,1,.64.11,1.069,1.069,0,0,0,.292.065c.032,0,.051-.013.051-.038s-.332-.371-.734-.778l-.734-.74.664-.667c.364-.366.669-.667.68-.667a3.4,3.4,0,0,1,.27.256l.254.256v.272a2.06,2.06,0,0,0,.07.63.555.555,0,0,1,.029.089,4.672,4.672,0,0,0,.212.511,1.331,1.331,0,0,1,.078.135c.07.126.394.624.445.681a1.666,1.666,0,0,1,.228.452.342.342,0,0,1-.032.092c-.048.094-.064.2-.035.24a.348.348,0,0,0,.1.067c.043.019.078.046.078.057a.024.024,0,0,0,.024.022.522.522,0,0,1,.131.089.618.618,0,0,0,.123.089.174.174,0,0,1,.064.046c.027.027.142.129.26.231a12.2,12.2,0,0,1,.9.926.22.22,0,0,0,.046.07,4.122,4.122,0,0,1,.308.4.757.757,0,0,0,.083.129,1.392,1.392,0,0,1,.11.172,1.527,1.527,0,0,0,.123.207,4.276,4.276,0,0,1,.236.471,1.86,1.86,0,0,0,.121.277.565.565,0,0,1,.046.135.352.352,0,0,0,.032.1.855.855,0,0,1,.046.145.855.855,0,0,0,.046.145,1.3,1.3,0,0,1,.043.2,1.167,1.167,0,0,0,.046.215,4.319,4.319,0,0,1,.046,1.055,2.533,2.533,0,0,1-.046.379,1.059,1.059,0,0,0-.046.2.622.622,0,0,1-.043.172.218.218,0,0,0-.032.1,2.12,2.12,0,0,1-.145.409c-.046.108-.236.493-.268.544l-.155.24a.909.909,0,0,1-.137.183c-.011,0-.019.013-.019.027a.446.446,0,0,1-.094.132l-.094.1ZM35.686,35.778a.406.406,0,0,1-.129-.067.134.134,0,0,0-.062-.04.14.14,0,0,1-.07-.059.279.279,0,0,0-.04-.067,1.267,1.267,0,0,1-.075-.108c-.043-.07-.048-.1-.037-.256a.74.74,0,0,1,.032-.2.732.732,0,0,0,.048-.137A.665.665,0,0,1,35.4,34.7a.948.948,0,0,0,.046-.2,1.114,1.114,0,0,1,.046-.215,1.257,1.257,0,0,0,0-.449c-.013-.008-.021-.046-.021-.086a.866.866,0,0,0-.067-.326c-.008,0-.024-.038-.032-.083a1.071,1.071,0,0,0-.07-.2.832.832,0,0,1-.054-.137.032.032,0,0,0-.016-.027,1,1,0,0,1-.088-.151,3.2,3.2,0,0,0-.268-.449c-.078-.118-.155-.226-.171-.242a.086.086,0,0,1-.032-.048c0-.013-1.315-1.343-2.919-2.955s-2.916-2.936-2.911-2.942.4.188,2.373,1.171c.511.256.943.466.953.466a.033.033,0,0,1,.029.016,2,2,0,0,0,.311.161c.005,0,.686.681,1.513,1.51s1.51,1.51,1.518,1.51a1.342,1.342,0,0,1,.163.116c.08.065.163.126.185.14s.08.051.134.089a5.308,5.308,0,0,0,.846.436,1.148,1.148,0,0,1,.134.043,1.488,1.488,0,0,0,.4.067.375.375,0,0,1,.142.024.108.108,0,0,0,.08.008.78.78,0,0,1,.147-.024,2,2,0,0,0,.428-.073,2.315,2.315,0,0,1,.236-.081c.353-.108.538-.075.731.129a.726.726,0,0,1,.185.39,1.092,1.092,0,0,1-.169.455.572.572,0,0,0-.075.132c0,.013-.6.63-1.334,1.367s-1.344,1.34-1.36,1.34a.474.474,0,0,0-.131.075,1.357,1.357,0,0,1-.458.167,1.068,1.068,0,0,1-.139-.048Zm20.266-2.226a.289.289,0,0,1-.177-.3.511.511,0,0,1,.072-.264.74.74,0,0,0,.07-.172.063.063,0,0,1,.021-.048c.035-.022.027-.207-.013-.272-.021-.032-1.489-1.523-3.267-3.31l-3.23-3.248,1.16-1.165c.637-.641,1.168-1.165,1.178-1.165s1.438,1.429,3.176,3.178,3.165,3.178,3.176,3.178a.434.434,0,0,1,.1.078c.08.075.094.078.246.078a.568.568,0,0,0,.249-.043l.088-.043.005.525.005.525-1.2,1.2A12.127,12.127,0,0,1,56.3,33.55.316.316,0,0,1,55.952,33.552ZM39.124,30.113c-2.116-1.063-5.345-2.678-5.506-2.75-.246-.113-.707-.347-.715-.361a.041.041,0,0,0-.029-.016c-.027,0-.664-.315-.68-.336a.347.347,0,0,0-.094-.043c-.046-.016-.083-.035-.083-.043s-.04-.027-.088-.043-.088-.038-.088-.048a.022.022,0,0,0-.024-.019,1.542,1.542,0,0,1-.327-.161.041.041,0,0,0-.029-.016,3.483,3.483,0,0,1-.5-.25.041.041,0,0,0-.029-.016c-.024,0-.661-.312-.68-.334a.325.325,0,0,0-.088-.043c-.043-.016-.919-.449-1.947-.963a24.366,24.366,0,0,0-2.244-1.1.375.375,0,0,1-.11-.043.412.412,0,0,0-.134-.043.419.419,0,0,1-.11-.03,1.029,1.029,0,0,0-.268-.067.063.063,0,0,1-.056-.027c-.005-.016-.1-.03-.257-.035-.228-.008-.26-.005-.353.04a1.127,1.127,0,0,0-.2.137,1.126,1.126,0,0,1-.22.17c-.311.172-.391.2-.565.17-.088-.013-.123-.038-.265-.175a.577.577,0,0,1-.2-.291.721.721,0,0,1,.166-.667c.019-.024,1.06-1.082,2.319-2.349L28,18.059l.391.2c.214.108.4.2.4.2s.23.1.5.237l.913.447c.238.116.632.309.876.431s.45.221.461.221c.027,0,.844.409.852.428a.058.058,0,0,0,.043.016,4.9,4.9,0,0,1,.49.223c.249.124.653.323.9.441s.479.231.525.248.083.035.083.043.04.027.088.043.088.035.088.046.04.03.088.046.088.035.088.046.04.03.088.046.088.035.088.043a.464.464,0,0,0,.249.078c.046-.016.048-.094.005-.14a2.484,2.484,0,0,1-.137-.234c-.059-.11-.147-.28-.2-.377s-.131-.253-.177-.344a1.736,1.736,0,0,0-.11-.2A2.288,2.288,0,0,1,34.462,20c-.056-.11-.147-.28-.2-.377s-.129-.242-.169-.323A.776.776,0,0,0,34,19.149a1.235,1.235,0,0,1-.107-.188c-.048-.1-.147-.285-.22-.42s-.163-.309-.2-.388A.776.776,0,0,0,33.38,18a1.1,1.1,0,0,1-.107-.188c-.048-.1-.147-.285-.22-.42s-.147-.28-.169-.323a1,1,0,0,0-.08-.14c-.024-.035-.083-.14-.131-.234-.064-.121-.126-.245-.19-.366s-.137-.261-.179-.344-.1-.178-.118-.213-.08-.14-.129-.234c-.062-.116-.121-.234-.185-.35-.054-.1-.137-.258-.187-.355s-.107-.2-.129-.24l-.037-.062,2.29-2.3c2.482-2.5,2.5-2.511,2.78-2.567A.587.587,0,0,1,37,9.705a.675.675,0,0,1,.364.455,1.054,1.054,0,0,1-.155.646c-.209.417-.22.7-.035.923.051.062.11.137.134.17.062.083,9.713,9.78,9.734,9.78a.358.358,0,0,1,.094.078.616.616,0,0,0,.637.2,1.467,1.467,0,0,0,.463-.18.677.677,0,0,1,.9.075.6.6,0,0,1,.171.441.583.583,0,0,1-.075.323.6.6,0,0,0-.056.11c-.035.081-.538.6-2.587,2.662-1.4,1.408-2.557,2.562-2.571,2.562s-.027.008-.027.022-.027.035-.062.051-.091.048-.126.067a.6.6,0,0,1-.6.048.5.5,0,0,1-.142-.089.1.1,0,0,0-.059-.035.03.03,0,0,1-.029-.03.141.141,0,0,0-.048-.073.522.522,0,0,1-.134-.379.78.78,0,0,1,.123-.388,1.426,1.426,0,0,0,.214-.665.616.616,0,0,0-.142-.4c-.1-.14-8.4-8.459-8.438-8.459-.083,0-.029.17.137.433a.991.991,0,0,1,.086.167.241.241,0,0,0,.048.089,1.558,1.558,0,0,1,.115.2c.177.344.254.484.295.549a.765.765,0,0,1,.072.14.328.328,0,0,0,.043.089,2.815,2.815,0,0,1,.179.323c.051.1.134.258.187.355s.11.2.126.234a.6.6,0,0,0,.04.067.328.328,0,0,1,.043.089.442.442,0,0,0,.043.089c.024.022.22.385.345.638a.572.572,0,0,0,.1.161c.008,0,.029.04.046.089s.035.089.046.089.029.04.046.089.037.089.046.089a.652.652,0,0,1,.1.161c.145.291.319.614.343.638a1.215,1.215,0,0,1,.072.135c.035.067.11.213.171.323s.15.28.2.377a2.6,2.6,0,0,0,.177.323.328.328,0,0,1,.043.089.365.365,0,0,0,.048.091,1.266,1.266,0,0,1,.1.178c.158.309.273.519.292.546s.062.1.11.2.139.266.2.374.139.264.182.344.1.186.131.234a1.24,1.24,0,0,1,.086.167.328.328,0,0,0,.043.089,5.03,5.03,0,0,1,.311.568c.064.121.123.226.131.234a1.875,1.875,0,0,1,.158.331.022.022,0,0,0,.021.024.528.528,0,0,1,.1.161c.046.089.131.25.19.361s.115.218.123.24.021.038.029.038.029.038.046.083a.35.35,0,0,0,.043.094,2.083,2.083,0,0,1,.171.3c.043.086.118.226.166.312s.11.2.137.256a.668.668,0,0,0,.062.11.452.452,0,0,1,.051.089c.021.043.083.159.137.256s.137.258.19.355.11.2.131.234a1.042,1.042,0,0,1,.07.135.328.328,0,0,0,.043.089,2.316,2.316,0,0,1,.166.3l.078.156-.225.229a1.643,1.643,0,0,1-.249.226c-.024-.013-.852-.425-1.848-.926Zm-25.909-.471c-.046-.027-.083-.057-.083-.067a.083.083,0,0,0-.035-.046.385.385,0,0,1,.013-.39,1.138,1.138,0,0,0,.1-.32.26.26,0,0,0-.029-.167c-.021-.043-1.379-1.426-3.066-3.125L7.094,22.481l1.1-1.106,1.1-1.106,3.056,3.068a34.783,34.783,0,0,0,3.147,3.081.693.693,0,0,0,.407-.094.5.5,0,0,1,.238-.059.212.212,0,0,1,.2.078.951.951,0,0,1,.1.118.352.352,0,0,1-.024.285c-.024.048-.629.673-1.414,1.461-1.58,1.585-1.553,1.564-1.781,1.434Zm-6.74-4.317L5.369,24.217,6,23.581l.629-.635.228.237.228.237.013.312a2.422,2.422,0,0,0,.1.667c.011.024.032.081.048.121a3.978,3.978,0,0,0,.284.565c.037.057.07.108.07.11a.832.832,0,0,0,.072.113c.04.057.083.121.094.14s.054.078.094.129c.222.288.276.527.153.676a.366.366,0,0,1-.308.175l-.131.011ZM18,24.846a.315.315,0,0,1-.171-.256.381.381,0,0,1,.062-.253,1.155,1.155,0,0,0,.1-.315.294.294,0,0,0-.035-.178c-.062-.126-5.3-5.393-5.423-5.447-.137-.062-.244-.046-.482.07a.358.358,0,0,1-.42-.008A.421.421,0,0,1,11.5,18.2c0-.14.1-.25,1.467-1.623.755-.759,1.406-1.4,1.449-1.418a.3.3,0,0,1,.284-.032.506.506,0,0,1,.225.28.952.952,0,0,1-.11.328.581.581,0,0,0-.048.385c.019.057.736.791,2.715,2.78,2.673,2.686,2.694,2.7,2.8,2.718a.622.622,0,0,0,.394-.1.388.388,0,0,1,.412-.005.317.317,0,0,1,.1.428c-.024.048-.629.673-1.414,1.461-1.393,1.4-1.492,1.491-1.639,1.486A.3.3,0,0,1,18,24.846Zm37.333-.253a.412.412,0,0,1-.118-.078.038.038,0,0,0-.035-.019.121.121,0,0,1-.067-.043A.392.392,0,0,0,55,24.375c-.04-.019-.075-.046-.075-.057s-.013-.022-.029-.022a.082.082,0,0,1-.056-.032.348.348,0,0,0-.1-.067.174.174,0,0,1-.078-.054c0-.008-.016-.024-.037-.032a1.315,1.315,0,0,1-.15-.081l-.166-.094a.348.348,0,0,1-.067-.04.325.325,0,0,0-.088-.043c-.088-.032-.177-.07-.287-.121a1.434,1.434,0,0,0-.209-.062.983.983,0,0,1-.182-.048,1.733,1.733,0,0,0-.362-.024l-.313,0-.26-.258-.26-.258.669-.673c.6-.6.675-.67.707-.643.083.067,2.145,2.15,2.212,2.234a.388.388,0,0,1,.075.369.675.675,0,0,1-.126.172.251.251,0,0,1-.233.108.354.354,0,0,1-.249-.051ZM21.458,21.356c-.187-.108-.217-.266-.1-.519a.56.56,0,0,0,.046-.118.019.019,0,0,1,.019-.022c.029,0,.048-.167.032-.272-.013-.089-.08-.161-1.253-1.346-.683-.686-1.256-1.249-1.275-1.249a3.658,3.658,0,0,0-.42.388l-.386.388-.238-.24-.238-.24.386-.39a3.933,3.933,0,0,0,.386-.423c0-.043-2.295-2.349-2.373-2.382-.032-.016-.062-.035-.062-.043s-.048-.016-.11-.016a.788.788,0,0,0-.394.129.321.321,0,0,1-.49-.191.381.381,0,0,1,.07-.328c.1-.132,2.726-2.756,2.809-2.8a.288.288,0,0,1,.327-.024.306.306,0,0,1,.169.406,1.739,1.739,0,0,0-.091.2.526.526,0,0,0-.011.441c.016.022,1.226,1.243,2.686,2.71a33.046,33.046,0,0,0,2.75,2.7.555.555,0,0,0,.4-.057,1.35,1.35,0,0,1,.254-.1.382.382,0,0,1,.262.132.566.566,0,0,0,.051.073.332.332,0,0,1-.005.272.787.787,0,0,0-.048.089c-.008.019-.637.659-1.4,1.426a12.051,12.051,0,0,1-1.473,1.416A.426.426,0,0,1,21.458,21.356Zm28.632-.067a.67.67,0,0,1-.27-.186.661.661,0,0,1-.139-.17.336.336,0,0,0-.032-.1.342.342,0,0,1-.032-.135,1.485,1.485,0,0,1,.171-.5,1.2,1.2,0,0,0,.179-.646.42.42,0,0,0-.059-.24.409.409,0,0,1-.048-.081.341.341,0,0,0-.067-.078.25.25,0,0,1-.067-.083c0-.024-9.758-9.828-9.782-9.828a.318.318,0,0,1-.094-.078.377.377,0,0,0-.088-.078.334.334,0,0,1-.086-.051c-.062-.043-.1-.051-.292-.051a1.114,1.114,0,0,0-.276.024c-.581.277-.619.293-.744.309-.107.013-.142.005-.332-.086a.927.927,0,0,1-.308-.385c-.051-.135-.064-.264-.029-.285a.226.226,0,0,0,.035-.108.558.558,0,0,1,.07-.178.487.487,0,0,0,.054-.1c0-.027.008-.032,2.378-2.425l2.319-2.339,6.473,6.5,6.473,6.5-2.316,2.323c-1.275,1.278-2.335,2.336-2.359,2.355a1.293,1.293,0,0,1-.372.17.218.218,0,0,0-.1.035c-.016.038-.118.024-.26-.027Zm-37.44-.059a1.068,1.068,0,0,1-.19-.121.589.589,0,0,0-.112-.078.964.964,0,0,1-.145-.1.811.811,0,0,0-.147-.1.45.45,0,0,1-.107-.065,3.648,3.648,0,0,0-.611-.312.089.089,0,0,1-.056-.024.491.491,0,0,0-.153-.057l-.206-.054a2.74,2.74,0,0,0-.383-.027l-.305-.005L10,20.056a2.83,2.83,0,0,1-.23-.248c0-.008.279-.3.621-.643l.621-.624,1.071,1.074c.653.654,1.085,1.1,1.1,1.149a.368.368,0,0,1,.032.124.5.5,0,0,1-.26.369A.461.461,0,0,1,12.65,21.229Zm12.313-3.34a.41.41,0,0,1-.222-.291.7.7,0,0,1,.08-.226.575.575,0,0,0,.056-.522.361.361,0,0,1-.048-.075c0-.019-5.259-5.3-5.278-5.3a.159.159,0,0,1-.056-.038c-.029-.027-.078-.038-.179-.035a.563.563,0,0,0-.3.083c-.249.129-.394.113-.52-.059a.334.334,0,0,1-.054-.148c-.024-.183,0-.213,1.315-1.534l1.226-1.233,3.4,3.418,3.4,3.418-1.232,1.238c-.678.681-1.261,1.251-1.3,1.27a.372.372,0,0,1-.295.032Zm30.876-2.78c-.461-.463-.471-.476-.431-.514a.122.122,0,0,0,.043-.067.068.068,0,0,1,.035-.048.482.482,0,0,0,.131-.2c.019-.04.04-.073.051-.073s.027-.022.04-.051.086-.17.161-.315A1.748,1.748,0,0,0,56,13.535c0-.022.008-.04.019-.04s.032-.048.046-.1a.53.53,0,0,1,.043-.126.6.6,0,0,0,.046-.135.6.6,0,0,1,.046-.135.8.8,0,0,0,.046-.178,1.184,1.184,0,0,1,.046-.2,6.039,6.039,0,0,0,.088-.972,6.47,6.47,0,0,0-.088-1.007,1.522,1.522,0,0,1-.048-.207.581.581,0,0,0-.046-.172c-.011-.005-.019-.03-.019-.054a2.97,2.97,0,0,0-.155-.492A.151.151,0,0,1,56,9.649a.588.588,0,0,0-.048-.129,5.312,5.312,0,0,1-.241-.557c-.013-.043-.035-.1-.046-.121a1,1,0,0,1-.043-.527.864.864,0,0,1,.38-.382.392.392,0,0,1,.279-.051.406.406,0,0,1,.22.059.334.334,0,0,0,.083.048c.008,0,.511.5,1.119,1.109l1.1,1.109v2.907L57.578,14.35c-.678.681-1.24,1.238-1.251,1.238s-.228-.218-.487-.479Zm-27.8-.49-.23-.231.048-.075c.027-.04.059-.1.075-.129a.323.323,0,0,1,.043-.067.972.972,0,0,0,.139-.285c.008-.038.024-.07.032-.07a.349.349,0,0,0,.046-.135.4.4,0,0,1,.043-.135,2.761,2.761,0,0,0,.075-.721,2.393,2.393,0,0,0-.072-.673.877.877,0,0,1-.046-.151,1.369,1.369,0,0,0-.056-.183c-.021-.048-.043-.1-.062-.145s-.051-.118-.078-.172a.653.653,0,0,1-.07-.385c.021-.075.1-.172.145-.172a.053.053,0,0,0,.04-.032c.019-.051.187-.043.257.011a.224.224,0,0,0,.072.043c.011,0,.439.423.953.942l.935.939L29.3,13.818c-.562.565-1.026,1.025-1.031,1.025a1.941,1.941,0,0,1-.236-.223Zm-1.3-2.7a1.154,1.154,0,0,1-.182-.081c-.121-.065-.321-.167-.436-.221a2.45,2.45,0,0,0-.557-.121,1.576,1.576,0,0,0-.463.116c-.024.022-.08-.024-.3-.242l-.268-.269.029-.1a.5.5,0,0,1,.054-.126.991.991,0,0,0,.024-.277,1.334,1.334,0,0,0-.107-.581c-.016-.038-.043-.1-.059-.145a.5.5,0,0,0-.04-.089,1.628,1.628,0,0,1-.142-.245.5.5,0,0,1-.067-.226c0-.094.005-.113.086-.2.107-.11.209-.167.241-.135a.105.105,0,0,0,.067.022c.029,0,.45.406,1.224,1.184.648.651,1.21,1.222,1.248,1.268a.233.233,0,0,1-.029.361.305.305,0,0,1-.321.1ZM53.384,9.974a1.894,1.894,0,0,1-.5-.234,4.017,4.017,0,0,0-.619-.309c-.054-.019-.123-.046-.155-.062a.238.238,0,0,0-.083-.03.537.537,0,0,1-.121-.032,3.359,3.359,0,0,0-.691-.1,2.506,2.506,0,0,0-.645.1.273.273,0,0,1-.094.032.275.275,0,0,0-.1.043c-.155.094-.123.116-.683-.447l-.517-.519.072-.137a1.975,1.975,0,0,0,.174-.982,2.878,2.878,0,0,0-.123-.678.869.869,0,0,1-.032-.1,3.159,3.159,0,0,0-.241-.53c-.415-.821-.4-.775-.4-.958a.535.535,0,0,1,.212-.471.472.472,0,0,1,.445-.167.44.44,0,0,1,.214.07.464.464,0,0,0,.1.057.114.114,0,0,1,.051.032c.019.019.088.078.15.137a.619.619,0,0,1,.115.121c0,.022,3.811,3.848,3.955,3.972a.474.474,0,0,1,.112.118.108.108,0,0,0,.043.059.9.9,0,0,1,.123.194.489.489,0,0,1-.126.67.681.681,0,0,1-.428.2.985.985,0,0,1-.214-.051ZM21.718,8.268a2.538,2.538,0,0,1-.225-.245c0-.011.442-.46.983-1l.983-.985.964.969a12.312,12.312,0,0,1,.964,1.015.829.829,0,0,1-.131.283.466.466,0,0,1-.115.078.167.167,0,0,1-.182.013,1.584,1.584,0,0,1-.206-.089.6.6,0,0,0-.145-.059.181.181,0,0,1-.072-.032.155.155,0,0,0-.078-.032.252.252,0,0,1-.091-.03,1.12,1.12,0,0,0-.177-.059.664.664,0,0,1-.142-.046A3.08,3.08,0,0,0,23.2,8a1.971,1.971,0,0,0-.3.04.51.51,0,0,1-.134.043,2.6,2.6,0,0,0-.707.342.857.857,0,0,1-.1.062,1.507,1.507,0,0,1-.241-.223ZM43.862,3.077c-.252-.256-.458-.471-.458-.482s.554-.576,1.232-1.257L45.867.1h2.654l1.141,1.149a10.778,10.778,0,0,1,1.157,1.222.163.163,0,0,0,.035.083c.027.016.027.11,0,.161a1.346,1.346,0,0,0-.048.135,1.218,1.218,0,0,1-.439.476.435.435,0,0,1-.34.019.505.505,0,0,0-.115-.048c-.048-.016-.212-.089-.364-.161s-.308-.148-.348-.164-.1-.043-.145-.062a1.089,1.089,0,0,0-.166-.057.266.266,0,0,1-.1-.043.259.259,0,0,0-.1-.035.814.814,0,0,1-.161-.046,3.134,3.134,0,0,0-.533-.121,5.123,5.123,0,0,0-1.106-.043c-.182.013-.375.035-.428.046a3.317,3.317,0,0,0-.5.121.844.844,0,0,1-.139.046.714.714,0,0,0-.134.046.628.628,0,0,1-.131.046c-.04.008-.072.022-.072.03s-.04.03-.088.046-.088.038-.088.046-.032.024-.072.032a.761.761,0,0,0-.182.086c-.062.038-.137.083-.166.1a1.8,1.8,0,0,0-.305.188.627.627,0,0,1-.134.083.106.106,0,0,0-.048.032.083.083,0,0,1-.054.032c-.016,0-.225-.215-.477-.468Z" transform="translate(24.431 15.024)"/></svg>