<svg xmlns="http://www.w3.org/2000/svg" width="173" height="89.293" viewBox="0 0 173 89.293"><defs><style>.a,.c{fill:#fff;}.a{stroke:#e4e4e4;}.b{fill:#7c43f4;stroke:#7c43f4;}.b,.c{stroke-width:0.094px;}.c{stroke:#fff;}.d{stroke:none;}.e{fill:none;}</style></defs><g class="a"><rect class="d" width="173" height="89.293" rx="6"/><rect class="e" x="0.5" y="0.5" width="172" height="88.293" rx="5.5"/></g><g transform="translate(30.285 21.15)"><path class="b" d="M25.281,16.015a5.427,5.427,0,0,1,5.285,2.109,5.346,5.346,0,0,1-.431,6.782,5.322,5.322,0,0,1-8.256-6.668A5.437,5.437,0,0,1,25.281,16.015Zm23,.091a5.315,5.315,0,1,1-3.516,7.3,5.29,5.29,0,0,1,.2-4.741A5.367,5.367,0,0,1,48.28,16.106ZM101.4,17.784c3.2.045,6.374.023,9.572,0,.091,2.7-.023,5.376.068,8.052,4.559-.068,9.118.023,13.677-.045.113,2.994-.023,6.011.045,9a14.258,14.258,0,0,1-2.2.045c-3.833,0-7.689.023-11.522,0-.136,2.835,0,5.693-.045,8.551.045,1.973-.227,4.083.635,5.92a6.219,6.219,0,0,0,4.582,3.652A7.709,7.709,0,0,0,122,51.92a6.811,6.811,0,0,0,2.745-5.353c.023-1.316-.023-2.631,0-3.924,3.221,0,6.419-.023,9.617,0a36.142,36.142,0,0,1-.317,6.646,15.494,15.494,0,0,1-5.33,9.322,16.855,16.855,0,0,1-11.137,3.606,16.534,16.534,0,0,1-10.842-3.9,15.761,15.761,0,0,1-5.194-10.139,40.4,40.4,0,0,1-.159-5.24C101.4,34.546,101.333,26.176,101.4,17.784Zm-31.165,6.85c7.054-3.289,16.172-1.747,21.5,4.015,4.4,4.672,5.761,11.454,5.149,17.692-9.436.068-18.871,0-28.307.045a9.947,9.947,0,0,0,4.378,6.033,10.1,10.1,0,0,0,8.369.794,8,8,0,0,0,4.514-3.788c3.425-.068,6.85,0,10.3-.023A16.921,16.921,0,0,1,89.9,58.589a19.717,19.717,0,0,1-11.568,3.629,19.007,19.007,0,0,1-11.114-3.38,19.55,19.55,0,0,1-7.371-9.776,20.055,20.055,0,0,1,.635-14.471,19.767,19.767,0,0,1,9.753-9.957ZM44.81,30.055h9.64c-.023,5.353,0,10.706-.023,16.059a16.762,16.762,0,0,1-3.811,10.661,15.706,15.706,0,0,1-9.458,5.194,18.223,18.223,0,0,1-12.77-2.4,15.274,15.274,0,0,1-6.306-8.936c-.749-2.518-.612-5.171-.658-7.78,3.2-.091,6.4.023,9.594-.045.227,2.064-.272,4.287.59,6.26a6.191,6.191,0,0,0,4.536,3.879,7.6,7.6,0,0,0,6.374-1.361,6.972,6.972,0,0,0,2.291-5.24C44.833,40.92,44.81,35.5,44.81,30.055Z" transform="translate(-20.933 -15.931)"/><path class="c" d="M236.214,85.283a9.967,9.967,0,0,1,8.642-.476,9.222,9.222,0,0,1,5.4,6.351H231.7A10.114,10.114,0,0,1,236.214,85.283Z" transform="translate(-183.894 -68.596)"/></g></svg>