<svg xmlns="http://www.w3.org/2000/svg" width="38.436" height="38.437" viewBox="0 0 38.436 38.437"><defs><style>.a{fill:#fff;}</style></defs><g transform="translate(0)"><path class="a" d="M38.436,19.218A19.218,19.218,0,1,0,19.218,38.436,19.219,19.219,0,0,0,38.436,19.218Zm-36.689,0A17.471,17.471,0,1,1,19.218,36.689,17.471,17.471,0,0,1,1.747,19.218Z"/></g><g transform="translate(11.646 10.608)"><g transform="translate(0 0)"><g transform="translate(0 0)"><path class="a" d="M128.094,144.358h3.088v-12.35h-3.088Zm12.35-12.35a5.663,5.663,0,0,0-4.117,2.058v-2.058H133.24v12.35h3.088v-7.2a2.624,2.624,0,0,1,3.088-2.058c1.309.085,2.014,1.816,2.058,2.058v7.2l3.075.014v-8.55A3.853,3.853,0,0,0,140.444,132.008Zm-10.807-4.117a1.544,1.544,0,1,0,1.544,1.544A1.544,1.544,0,0,0,129.638,127.891Z" transform="translate(-128.094 -127.891)"/></g></g></g></svg>