<svg xmlns="http://www.w3.org/2000/svg" width="252.352" height="64" viewBox="0 0 252.352 64"><defs><style>.a{fill:#1f1f1f;font-size:53px;font-family:Montserrat-Medium, Montserrat;font-weight:500;}.b{fill:#8000d5;}</style></defs><g transform="translate(-606.857 -449.014)"><g transform="translate(606.857 449.014)"><text class="a" transform="translate(107.352 51)"><tspan x="0" y="0">tergo</tspan></text><g transform="translate(74.515 14.461)"><g transform="translate(0.123 6.03)"><path class="b" d="M1.507,26.988,10.848,14.1,0,0H12.316l6.268,8.019-1.595,2.037L10.848,2.933H5.482l8.8,11.171L5.106,26.988Z" transform="translate(26.988) rotate(90)"/><path class="b" d="M17.016,0,7.709,12.837,18.517,26.891H6.245L0,18.9l1.589-2.03,6.12,7.1h5.346L4.287,12.837,13.429,0Z" transform="translate(26.988 14.679) rotate(90)"/></g><g transform="translate(0)"><path class="b" d="M.066,27.111,0,0H3.814V27.111Z" transform="translate(27.111) rotate(90)"/></g></g><text class="a" transform="translate(0 51)"><tspan x="0" y="0">ne</tspan></text></g></g></svg>