<svg xmlns="http://www.w3.org/2000/svg" xmlns:xlink="http://www.w3.org/1999/xlink" width="139" height="468" viewBox="0 0 139 468"><defs><style>.a{fill:#fff;stroke:#707070;}.b{clip-path:url(#a);}.c{fill:#7f0fd1;}</style><clipPath id="a"><rect class="a" width="139" height="468" transform="translate(1781 2563)"/></clipPath></defs><g transform="translate(-1781 -2563)"><g class="b"><g transform="translate(692.648 -1897)"><g transform="translate(1088.33 4460)"><g transform="translate(1.469 71.939)"><path class="c" d="M17.977,321.991,129.424,168.279,0,0H146.944l74.778,95.672-19.029,24.3L129.424,35H65.4l104.99,133.283L60.925,321.991Z" transform="translate(321.991 0) rotate(90)"/><path class="c" d="M203.022,0,91.977,153.163,220.925,320.84H74.51L0,225.509l18.964-24.22,73.013,84.678h63.788L51.149,153.163,160.221,0Z" transform="translate(321.99 175.136) rotate(90)"/></g><g transform="translate(0 0)"><path class="c" d="M.791,323.461,0,0H45.5V323.461Z" transform="translate(323.461) rotate(90)"/></g></g></g></g></g></svg>