<svg xmlns="http://www.w3.org/2000/svg" width="129" height="129" viewBox="0 0 129 129"><defs><style>.a{fill:#eaeaea;stroke:#d6d6d6;}.b{fill:#8100d9;}.c{stroke:none;}.d{fill:none;}</style></defs><g transform="translate(-941 -5521)"><g class="a" transform="translate(941 5521)"><circle class="c" cx="64.5" cy="64.5" r="64.5"/><circle class="d" cx="64.5" cy="64.5" r="64"/></g><g transform="translate(968 5553)"><path class="b" d="M62.468,46.047a12.847,12.847,0,0,0-1.641.109V41.379a1.1,1.1,0,1,0-2.2,0V51.622c-.076,0-.152-.006-.229-.006a8.6,8.6,0,0,0-2.407.344V41.491a2.612,2.612,0,0,0-2.609-2.609H50.666a2.612,2.612,0,0,0-2.609,2.609V53.212H44.682V41.491a2.612,2.612,0,0,0-2.609-2.609H30.349a2.612,2.612,0,0,0-2.609,2.609V53.212H24.365V41.491a2.612,2.612,0,0,0-2.609-2.609H19.042a2.612,2.612,0,0,0-2.609,2.609V53.212H13.8V30.661L36.211,10.537,58.625,30.661v5.924a1.1,1.1,0,1,0,2.2,0V32.638l.405.364a2.612,2.612,0,0,0,3.684-.2L67.436,30a2.612,2.612,0,0,0-.2-3.684L55.2,15.508a1.1,1.1,0,1,0-1.471,1.638L65.766,27.952a.408.408,0,0,1,.031.575l-2.519,2.805a.408.408,0,0,1-.575.031L36.946,8.238a1.1,1.1,0,0,0-1.471,0L9.718,31.363a.407.407,0,0,1-.575-.031l-2.519-2.8a.408.408,0,0,1,.031-.575L34.679,2.791a2.29,2.29,0,0,1,3.063,0l12.419,11.15A1.1,1.1,0,0,0,51.632,12.3L39.213,1.153a4.486,4.486,0,0,0-6,0L5.185,26.313A2.612,2.612,0,0,0,4.986,30L7.5,32.8a2.591,2.591,0,0,0,1.8.862c.048,0,.1,0,.143,0A2.592,2.592,0,0,0,11.189,33l.405-.364V46.095A12.562,12.562,0,0,0,5.05,48.607a1.1,1.1,0,0,0,1.328,1.757,10.375,10.375,0,0,1,5.217-2.057v13.6H2.687a10.515,10.515,0,0,1,.841-8.269,1.1,1.1,0,1,0-1.922-1.074,12.712,12.712,0,0,0-.72,10.849,1.1,1.1,0,0,0,1.024.7H73.253a1.1,1.1,0,0,0,1.024-.7A12.7,12.7,0,0,0,62.468,46.047ZM50.259,41.491a.407.407,0,0,1,.407-.407H53.38a.407.407,0,0,1,.407.407V52.956q-.194.123-.38.256H50.259Zm.994,13.923a8.612,8.612,0,0,0-1.318,6.492H44.682V55.414Zm-20.9-14.329H42.072a.407.407,0,0,1,.407.407V61.906H29.942V41.491A.407.407,0,0,1,30.349,41.084Zm-11.714.407a.407.407,0,0,1,.407-.407h2.714a.407.407,0,0,1,.407.407V53.212H18.634ZM13.8,61.906V55.414H27.74v6.492Zm45.929,0H52.192a6.422,6.422,0,1,1,12.409,0Zm12.75,0H66.859a8.627,8.627,0,0,0-6.032-9.939V48.378A10.5,10.5,0,0,1,72.961,58.742,10.461,10.461,0,0,1,72.476,61.906Zm0,0" transform="translate(0 0)"/><path class="b" d="M265.945,346.724a1.1,1.1,0,0,0,1.1-1.1v-1.249a1.1,1.1,0,0,0-2.2,0v1.249A1.1,1.1,0,0,0,265.945,346.724Zm0,0" transform="translate(-225.964 -292.88)"/><path class="b" d="M198.117,149.431a7.127,7.127,0,1,0,7.126-7.126A7.135,7.135,0,0,0,198.117,149.431Zm12.051,0a4.925,4.925,0,1,1-4.925-4.924A4.93,4.93,0,0,1,210.168,149.431Zm0,0" transform="translate(-169.033 -121.414)"/></g></g></svg>