<svg xmlns="http://www.w3.org/2000/svg" width="47.817" height="63.809" viewBox="0 0 47.817 63.809"><defs><style>.a,.b{fill:#fff;}.a{stroke:#8200dd;stroke-width:1.4px;}.c,.d{stroke:none;}.d{fill:#8200dd;}.e{fill:none;}</style></defs><g transform="translate(11213.741 -2733.857)"><g transform="translate(-11213 2734.581)"><path class="a" d="M790.863,830.345l.444-1.472,1.993.287-.274,1.325Z" transform="translate(-790.212 -772.299)"/><path class="a" d="M864.466,834.078l.125.8,2.169-.4-.137-1.2Z" transform="translate(-850.706 -775.921)"/><g transform="translate(0.651 29.228)"><path class="a" d="M798.862,678.533s-.337,2.876-.706,5.823c-.085.67-.17,1.344-.254,1.989-.276,2.118-.531,3.919-.641,4.235-.294.85-3.533,12.61-3.533,12.61s-2.758.285-2.865-.064c0,0,2.172-13.233,2.132-13.716s.433-14.083.433-14.083S798.7,677.751,798.862,678.533Z" transform="translate(-790.863 -675.328)"/></g><g transform="translate(3.158 26.978)"><path class="a" d="M813.346,664.024s2.842,13.3,3.084,14.32,1.75,15.023,1.75,15.023a5.1,5.1,0,0,1-3,.512s-3.223-14.7-3.48-15.187c-1-1.893-4.458-11.283-4.94-12.6a8.944,8.944,0,0,0-1.816-2.639S808.424,661.418,813.346,664.024Z" transform="translate(-804.94 -662.698)"/></g><g transform="translate(18.939 12.943)"><path class="a" d="M893.543,584.94a16.2,16.2,0,0,1,2.194-1.047c.188.045.234.163.05.273s-1.91,1.115-1.91,1.115,2.567-.873,2.729-.872c.095,0,.2.223.1.291s-2.6,1.088-2.6,1.088,2.4-.81,2.533-.767a.188.188,0,0,1-.011.342c-.174.073-2.363.958-2.363.958a9.7,9.7,0,0,1,1.869-.364c.056.066.153.254-.309.361s-1.53.481-1.53.481Z" transform="translate(-893.543 -583.892)"/></g><g transform="translate(16.81 12.852)"><path class="a" d="M881.589,586.157s.64-.4.608-.849a2.7,2.7,0,0,1,.263-1.055c.091-.213.145-.972.394-.859s-.031,1.254-.046,1.5.833-.436,1.078-.434,1.2,1.536.564,1.937a6.371,6.371,0,0,1-1.641.485,4.634,4.634,0,0,1-.449.311Z" transform="translate(-881.589 -583.383)"/></g><g transform="translate(9.401 13.954)"><path class="a" d="M840.754,589.57s1.46,3.783,1.759,3.767,5.3-2.457,5.3-2.457.9,1.36.656,1.522c-.343.226-6.8,4.791-7.3,4.553s-.715-3.181-.715-3.181S839.229,589.735,840.754,589.57Z" transform="translate(-839.989 -589.57)"/></g><g transform="translate(7.924 4.027)"><path class="a" d="M834.376,537.887s-.01.141-.023.359c-.009.16-.02.362-.028.581a7.968,7.968,0,0,0,.052,1.629c.147.606-2.6-1.857-2.6-1.857a30,30,0,0,0-.071-4.251C831.5,532.106,834.376,537.887,834.376,537.887Z" transform="translate(-831.7 -533.831)"/></g><g transform="translate(2.789 8.725)"><path class="a" d="M811.754,573.02a16.226,16.226,0,0,0-.122,3.668c.031.6.077,1.237.133,1.883.076.881.168,1.793.257,2.707,0,0-1.845.962-9.13,2.134a89.765,89.765,0,0,1,1.835-19.126c.541-2.051,1.665-2.793,3.359-4.074a12.7,12.7,0,0,1,2.484,1.627,11.233,11.233,0,0,1,1.437,3.273,10.9,10.9,0,0,1,.027,6.724c-.064.253-.131.516-.2.792C811.808,572.753,811.781,572.885,811.754,573.02Z" transform="translate(-802.865 -560.212)"/></g><g transform="translate(9.006 7.674)"><path class="a" d="M839.346,555.078c-.009.16-.023.472-.031.69a7.224,7.224,0,0,1-1.539-1.457A5.194,5.194,0,0,0,839.346,555.078Z" transform="translate(-837.775 -554.31)"/></g><path class="a" d="M821.071,697.626c-.084.67-.17,1.344-.254,1.989h0a62.208,62.208,0,0,1-2.072-8.141C818.887,691.861,821.071,697.626,821.071,697.626Z" transform="translate(-813.127 -659.371)"/><path class="a" d="M832.18,560.212s3.447,3.778,4.3,6.539a13.653,13.653,0,0,0-1.756-4.9A3.7,3.7,0,0,0,832.18,560.212Z" transform="translate(-824.17 -551.487)"/><g transform="translate(7.166 1.515)"><path class="a" d="M832.588,520.638a10.65,10.65,0,0,1,.948,1.939c0,.336-.4.337-.19.688s.645,1.01.437,1.223-.7.109-.807.566-.681,1.85-1.315,1.847a6.1,6.1,0,0,1-2.965-1.552c-.146-.448-.975-2.949-1.239-3.43s4.334-2.8,4.733-2.042Z" transform="translate(-827.444 -519.726)"/></g><g transform="translate(6.409 0)"><path class="a" d="M829.008,513.487a.83.83,0,0,0,.439-1.009,1.6,1.6,0,0,0-2.161-1.143c-1.334.431-2.344,1.344-3.266,1.493s-1.137,1.048-.326,2.723,1.136,2.525,1.136,2.525.279-1.471.629-1.415.914-.9.914-.9l.093.246.623-.042s-.812-1.755-.382-1.977S828.941,513.682,829.008,513.487Z" transform="translate(-823.192 -511.222)"/></g><g transform="translate(9.006 4.747)"><path class="a" d="M839.075,537.875s.413,1.5.755,1.518a5.857,5.857,0,0,1,1.726.379.319.319,0,0,1,.1.348c-.072.218-.278,1.517.135,1.948,0,0-.294.463-1.766-.052a7.1,7.1,0,0,1-2.248-1.214s1.056-2.01.677-2.886Z" transform="translate(-837.775 -537.875)"/></g><g transform="translate(8.181 3.84)"><path class="a" d="M834.551,533.23a.776.776,0,0,0-1.207-.247c-.567.409.186,1.776.773,1.749S834.869,533.94,834.551,533.23Z" transform="translate(-833.143 -532.784)"/></g><path class="a" d="M819.306,576.009l4.665-.838s-.272-5.312-3.024-5.088S818.568,572.854,819.306,576.009Z" transform="translate(-813.15 -559.594)"/><g transform="translate(16.054 29.792)"><g transform="translate(0)"><path class="a" d="M879.214,678.5a2.484,2.484,0,0,0,.738.21c.235-.011,1.678-.155,1.865.093s1.572,1.645,1.384,1.857a.244.244,0,0,1-.422,0,9.691,9.691,0,0,0-1.29-1.019s.95,1.066.786,1.383-.457.258-.633.317-.469.282-.786.141-1.525-1.456-1.818-1.644-1.677-.907-1.689-.978A16.921,16.921,0,0,1,879.214,678.5Z" transform="translate(-877.348 -678.497)"/></g></g><path class="a" d="M864.091,837.617s1.637-.347,1.693-.4.4-.706.653-.6.273.9.524,1.027,2.234,1.419,2.479,1.656,1.727.069,1.9.485.209,1.405-2.01,1.211-4.741.211-5.222-.042S863.95,838.257,864.091,837.617Z" transform="translate(-850.205 -778.657)"/><path class="a" d="M787.858,834.229s1.671-.081,1.735-.122.505-.633.74-.485.126.93.353,1.1,1.978,1.758,2.182,2.031,1.694.345,1.8.784-.018,1.421-2.177.874-4.714-.55-5.148-.877S787.616,834.838,787.858,834.229Z" transform="translate(-787.207 -776.182)"/><path class="a" d="M829.2,615.237A32.238,32.238,0,0,1,826,611.953c-.166-.475-1.864-6.927-1.916-7.13l4.987,8.531C829.1,613.959,829.148,614.59,829.2,615.237Z" transform="translate(-817.515 -588.152)"/><path class="a" d="M823.509,574.1a2.094,2.094,0,0,0-3.06-1.255c-1.318.559-1.342,2.231.755,8a44.564,44.564,0,0,0,1.821,4.367c1.315,1.583,6.73,6.973,7.394,7.166l1.5-.978s-2.749-3.105-3.753-4.419-2.748-4.158-2.748-4.158Z" transform="translate(-813.774 -561.654)"/></g><g transform="translate(-11186.911 2740.768)"><rect class="a" width="13.03" height="1.193" transform="matrix(1, -0.008, 0.008, 1, 0, 11.714)"/><rect class="a" width="13.03" height="1.193" transform="translate(11.901 12.46) rotate(-72.995)"/></g><g class="b" transform="translate(-11177.229 2784.56)"><path class="c" d="M0,0H1.179V9.542H0Z"/><path class="d" d="M -3.099441528320312e-06 1.9073486328125e-06 L 1.179276823997498 1.9073486328125e-06 L 1.179276823997498 9.542441368103027 L -3.099441528320312e-06 9.542441368103027 L -3.099441528320312e-06 1.9073486328125e-06 Z"/></g><g class="b" transform="translate(-11188.142 2753.614)"><path class="c" d="M 11.26310920715332 4.153890609741211 L 8.279750823974609 2.529921293258667 L 8.123260498046875 2.44473123550415 L 7.945080757141113 2.44473123550415 L 0.7000007629394531 2.44473123550415 L 0.7000007629394531 0.7000012993812561 L 21.51810073852539 0.7000012993812561 L 21.51810073852539 2.44473123550415 L 14.35339069366455 2.44473123550415 L 14.16242122650146 2.44473123550415 L 13.99791049957275 2.541711330413818 L 11.26310920715332 4.153890609741211 Z"/><path class="d" d="M 1.400001525878906 1.400001287460327 L 1.400001525878906 1.744731187820435 L 7.945080757141113 1.744731187820435 L 8.301430702209473 1.744731187820435 L 8.614420890808105 1.915101289749146 L 11.24936103820801 3.349411964416504 L 13.64242076873779 1.938691377639771 L 13.97145080566406 1.744731187820435 L 14.35339069366455 1.744731187820435 L 20.81809997558594 1.744731187820435 L 20.81809997558594 1.400001287460327 L 1.400001525878906 1.400001287460327 M 0 1.430511474609375e-06 L 22.21810150146484 1.430511474609375e-06 L 22.21810150146484 3.144731283187866 L 14.35339069366455 3.144731283187866 L 11.2768611907959 4.958361148834229 L 7.945080757141113 3.144731283187866 L 0 3.144731283187866 L 0 1.430511474609375e-06 Z"/></g><g class="a" transform="translate(-11177.622 2766.979)"><rect class="c" width="1.965" height="18.082"/><rect class="e" x="0.7" y="0.7" width="0.565" height="16.682"/></g><g class="a" transform="translate(-11186.859 2796.264) rotate(-90)"><rect class="c" width="2.359" height="19.261"/><rect class="e" x="0.7" y="0.7" width="0.959" height="17.861"/></g><g class="a" transform="translate(-11178.802 2756.758)"><rect class="c" width="3.931" height="11.793"/><rect class="e" x="0.7" y="0.7" width="2.531" height="10.393"/></g></g></svg>