<svg xmlns="http://www.w3.org/2000/svg" width="227" height="89.293" viewBox="0 0 227 89.293"><defs><style>.a{fill:#fff;stroke:#e4e4e4;}.b{fill:#8db849;}.c{fill:#5a863e;}.d{fill:#fffffe;}.e{fill:#1a1919;}.f{stroke:none;}.g{fill:none;}</style></defs><g class="a"><rect class="f" width="227" height="89.293" rx="6"/><rect class="g" x="0.5" y="0.5" width="226" height="88.293" rx="5.5"/></g><g transform="translate(33.582 21.994)"><path class="b" d="M18.156,1.547c.321,0,.482.161.8.321-1.928.8-3.856,2.892-4.82,7.391l-3.535.964C11.729,7.01,13.978,1.547,18.156,1.547Zm1.767,1.607a11.2,11.2,0,0,1,.643,3.856v.321L15.906,8.616C16.87,5.242,18.477,3.8,19.923,3.154ZM24.1,6.046l-2.089.643V6.206a11.042,11.042,0,0,0-.482-3.535C22.654,2.993,23.618,4.439,24.1,6.046ZM34.544,8.616a.346.346,0,0,0-.321-.321c-.321,0-3.7-.321-3.7-.321S28.117,5.564,27.8,5.4c-.321-.321-.8-.161-.964-.161,0,0-.482.161-1.285.482-.8-2.249-2.249-4.338-4.659-4.338h-.161A2.841,2.841,0,0,0,18.316.1C12.532-.06,9.8,7.17,8.837,10.866c-1.285.321-2.571.8-4.017,1.285-1.285.321-1.285.482-1.446,1.607C3.213,14.561,0,39.947,0,39.947l25.546,4.82,13.818-3.053S34.544,8.938,34.544,8.616Z" transform="translate(0 -0.098)"/><path class="c" d="M24.415,6.353c-.161,0-3.535-.321-3.535-.321s-2.41-2.41-2.731-2.571c-.161-.161-.161-.161-.321-.161L15.9,42.825l13.818-3.053S24.9,7,24.9,6.674c0-.161-.321-.321-.482-.321" transform="translate(9.646 1.844)"/><path class="d" d="M18.642,10.251l-1.767,5.141a7.618,7.618,0,0,0-3.374-.8c-2.731,0-2.892,1.607-2.892,2.089,0,2.249,6.105,3.213,6.105,8.676,0,4.338-2.731,7.069-6.427,7.069A8.831,8.831,0,0,1,3.7,29.692l1.125-3.856S7.074,27.764,9,27.764A1.677,1.677,0,0,0,10.769,26c0-3.053-4.981-3.213-4.981-8.194,0-4.177,3.053-8.194,9-8.194,2.731-.161,3.856.643,3.856.643" transform="translate(2.245 5.658)"/><path class="e" d="M38.3,22.21c-1.446-.8-2.089-1.446-2.089-2.249,0-1.125.964-1.767,2.571-1.767a8.543,8.543,0,0,1,3.374.8l1.285-3.856s-1.125-.964-4.5-.964c-4.82,0-8.033,2.731-8.033,6.587,0,2.249,1.607,3.856,3.535,4.981,1.607.964,2.249,1.607,2.249,2.571s-.8,1.928-2.41,1.928a11.633,11.633,0,0,1-4.5-1.125L28.5,32.974a10.168,10.168,0,0,0,5.3,1.285c4.82,0,8.355-2.41,8.355-6.748,0-2.41-1.767-4.177-3.856-5.3m19.441-8.194a7.306,7.306,0,0,0-5.784,2.892h0L54.046,5.982H48.584l-5.3,27.8h5.463L50.512,24.3c.643-3.535,2.571-5.784,4.338-5.784,1.285,0,1.767.8,1.767,2.089a12.16,12.16,0,0,1-.161,2.41L54.368,33.938H59.83l2.089-11.247a28.856,28.856,0,0,0,.321-3.535c0-3.213-1.607-5.141-4.5-5.141M71.72,29.922c-1.928,0-2.571-1.607-2.571-3.535,0-3.053,1.607-8.194,4.5-8.194,1.928,0,2.571,1.607,2.571,3.213C76.219,24.941,74.612,29.922,71.72,29.922Zm2.731-15.906c-6.587,0-10.925,5.945-10.925,12.532,0,4.177,2.571,7.551,7.551,7.551,6.427,0,10.765-5.784,10.765-12.532C81.842,17.711,79.593,14.015,74.451,14.015ZM90.518,30.082a3.326,3.326,0,0,1-2.249-.8l.964-5.141c.643-3.374,2.41-5.623,4.338-5.623,1.607,0,2.249,1.607,2.249,3.053C95.66,25.1,93.571,30.082,90.518,30.082Zm5.3-16.067a7.477,7.477,0,0,0-5.784,3.213h0l.321-2.892h-4.82a66.515,66.515,0,0,1-1.125,7.23L80.557,41.49h5.463l1.446-8.033h.161a6.938,6.938,0,0,0,3.213.643c6.427,0,10.6-6.587,10.6-13.175C101.444,17.39,99.837,14.015,95.82,14.015ZM109.156,6.3A3.089,3.089,0,0,0,106.1,9.517a2.49,2.49,0,0,0,2.571,2.731h0a3.034,3.034,0,0,0,3.213-3.213A2.615,2.615,0,0,0,109.156,6.3M101.6,33.778h5.463l3.7-19.28H105.3ZM124.58,14.5h-3.856l.161-.964C121.206,11.605,122.331,10,124.1,10a5.3,5.3,0,0,1,1.767.321l1.125-4.338A7,7,0,0,0,124.1,5.5a7.847,7.847,0,0,0-5.3,1.767,10.344,10.344,0,0,0-3.213,6.105l-.161.964h-2.571l-.8,4.177h2.571l-2.892,15.264h5.463l2.892-15.264h3.7Zm13.014,0s-3.374,8.515-4.981,13.175h0c-.161-1.446-1.285-13.175-1.285-13.175h-5.784l3.213,17.674a2.038,2.038,0,0,1-.161.964,9.279,9.279,0,0,1-2.892,3.213,11.274,11.274,0,0,1-3.053,1.607l1.446,4.659a11.661,11.661,0,0,0,5.3-2.892c2.41-2.249,4.82-5.945,7.069-10.765l6.587-14.3Z" transform="translate(17.291 3.179)"/></g></svg>