<svg xmlns="http://www.w3.org/2000/svg" width="43.526" height="46.533" viewBox="0 0 43.526 46.533"><defs><style>.a{fill:#8200dd;stroke:#8300e1;stroke-width:0.5px;}</style></defs><g transform="translate(-1.239 0.28)"><path class="a" d="M29.893.4A3.029,3.029,0,0,0,26.8.446a.929.929,0,0,0-.13.093L13.122,12H2.489a1,1,0,0,0-1,1V32a1,1,0,0,0,1,1L13.1,33l13.543,12.44a.976.976,0,0,0,.161.12,3.029,3.029,0,0,0,3.09.044,3.124,3.124,0,0,0,1.6-2.756V3.158A3.125,3.125,0,0,0,29.893.4Zm-.4,42.443a1.147,1.147,0,0,1-.579,1.015,1.049,1.049,0,0,1-1,.026L14.489,31.557V27a1,1,0,0,0-2,0v4l-9,0V14h9v4a1,1,0,0,0,2,0V13.465L27.894,2.125a1.045,1.045,0,0,1,1.016.018,1.147,1.147,0,0,1,.579,1.015V42.845Z"/><path class="a" d="M34.766,9.54a1,1,0,0,0-.554,1.922,11.491,11.491,0,0,1,0,22.08,1,1,0,0,0,.277,1.961,1.018,1.018,0,0,0,.277-.039,13.491,13.491,0,0,0,0-25.924Z"/></g></svg>