<svg xmlns="http://www.w3.org/2000/svg" width="168" height="89.293" viewBox="0 0 168 89.293"><defs><style>.a,.c{fill:#fff;}.a{stroke:#e4e4e4;}.b{fill:#c83047;}.b,.c{fill-rule:evenodd;}.d{stroke:none;}.e{fill:none;}</style></defs><g class="a"><rect class="d" width="168" height="89.293" rx="6"/><rect class="e" x="0.5" y="0.5" width="167" height="88.293" rx="5.5"/></g><g transform="translate(19.973 13.737)"><path class="b" d="M8.5,66.2,131.591,53.381l5.282,50L13.785,116.192,8.5,66.2Z" transform="translate(-8.504 -53.381)"/><path class="c" d="M85.543,96.1,83.994,81.247a3.778,3.778,0,0,1,3.451-4.084,3.857,3.857,0,0,1,4.3,3.239l1.689,6.127-3.38,1.2-2.113-6.9-.141.07,1.41,13.31,9.224-.988.422,3.733-10.7,1.126a1.222,1.222,0,0,0-.352.072A2.287,2.287,0,0,1,85.543,96.1ZM27.661,90.471a2.059,2.059,0,0,1-.352-.985c-.211-1.83,1.549-2.605,3.028-2.746,3.38-.422,3.943,1.69,4.155,2.605l3.732-.423c-.281-2.465-2.253-6.338-7.957-5.7-6.126.634-6.83,4.718-6.548,6.9v.351c.563,4.155,3.521,4.507,6.548,4.93l2.042.351c2.042.283,3.521.563,3.662,2.113.211,2.113-1.76,2.817-3.662,3.028-3.38.352-4.155-1.76-4.3-2.817l-3.732.352c.282,2.535,1.9,6.619,8.732,5.915,1.619-.211,7.323-1.338,6.689-7.393-.423-3.592-2.887-4.508-5.493-4.859l-4.718-.775a2.471,2.471,0,0,1-1.831-.845Zm18.168,11.972,3.873-.424L48.012,85.472l5.633-.563-.352-3.591-15.28,1.619.422,3.521,5.633-.563,1.761,16.549Zm5.844-.635,4.155-.422.845-4.3,6.9-.7,1.619,4.013,4.3-.422L60.757,80.543l-4.507.493Zm10.422-8.8-4.718.494,1.549-8.169,3.169,7.675Zm8.38,6.831,3.873-.422-.775-7.253,4.507-.422a5.924,5.924,0,0,0,3.239-1.268A6.853,6.853,0,0,0,83.431,84.7c-.422-3.943-2.887-6.2-6.549-5.844l-8.52.915,2.112,20.068ZM99.7,96.809l14.294-1.549-.422-3.521-10.351,1.055-.563-5.14,9.154-.986-.422-3.591-9.154.986-.422-4.225,9.929-1.056-.352-3.521-13.8,1.408L99.7,96.809Zm15.14-6.339c.7,2.324,2.816,5,8.449,4.367,1.338-.141,5.281-.916,6.406-4.367a6.616,6.616,0,0,0,.283-2.957c-.352-3.591-2.887-4.507-5.493-4.93l-4.718-.7c-.775-.141-2.043-.282-2.182-1.9-.211-1.831,1.548-2.605,3.028-2.746,3.38-.352,3.943,1.76,4.155,2.605l3.732-.352c-.281-2.464-2.253-6.338-7.956-5.774-6.127.7-6.831,4.718-6.55,6.971.422,4.437,3.451,4.859,6.55,5.281l2.042.282c2.043.282,3.521.563,3.662,2.183a2.112,2.112,0,0,1-.775,2.041,5.573,5.573,0,0,1-2.817.916,4.016,4.016,0,0,1-3.521-.916,3.476,3.476,0,0,1-.844-1.9l-3.732.422c.069.423.141.916.282,1.478ZM73.22,88.711,72.586,82.8l3.169-.282c2.394-.282,3.521.422,3.732,2.394.07.915.281,3.1-2.605,3.45Zm56.4-15.545a1.7,1.7,0,0,1,.82.153,1.525,1.525,0,0,1,.659.561,1.649,1.649,0,0,1,.118,1.638,1.531,1.531,0,0,1-.561.651,1.653,1.653,0,0,1-1.632.118,1.511,1.511,0,0,1-.651-.563,1.63,1.63,0,0,1-.277-.8,1.669,1.669,0,0,1,.16-.838,1.516,1.516,0,0,1,.57-.65,1.727,1.727,0,0,1,.793-.27Zm.019.272a1.421,1.421,0,0,0-.66.225,1.283,1.283,0,0,0-.473.543,1.4,1.4,0,0,0-.136.7,1.38,1.38,0,0,0,.229.665,1.281,1.281,0,0,0,.545.471,1.367,1.367,0,0,0,1.359-.1,1.285,1.285,0,0,0,.47-.544,1.38,1.38,0,0,0-.1-1.364,1.277,1.277,0,0,0-.548-.468,1.4,1.4,0,0,0-.685-.129Zm-.554,2.326L128.961,74l.606-.043a1.494,1.494,0,0,1,.454.015.428.428,0,0,1,.232.154.451.451,0,0,1,.1.253.47.47,0,0,1-.114.346.55.55,0,0,1-.355.188.441.441,0,0,1,.156.083,1.976,1.976,0,0,1,.289.333l.24.328-.348.025-.177-.266a1.405,1.405,0,0,0-.326-.389.364.364,0,0,0-.232-.045L129.32,75l.054.749-.284.02Zm.213-1.012.345-.025a.552.552,0,0,0,.331-.1.242.242,0,0,0,.077-.2.232.232,0,0,0-.054-.137.248.248,0,0,0-.127-.082.871.871,0,0,0-.289-.012l-.324.024Z" transform="translate(-12.592 -58.714)"/></g></svg>