<svg xmlns="http://www.w3.org/2000/svg" width="38.436" height="38.437" viewBox="0 0 38.436 38.437"><defs><style>.a{fill:#fff;}</style></defs><g transform="translate(-260.413 -8501.24)"><g transform="translate(260.413 8501.24)"><path class="a" d="M159.847,169.808c0-.194,0-.386-.012-.577a8.729,8.729,0,0,0,2.119-2.278,8.137,8.137,0,0,1-2.439.667,4.359,4.359,0,0,0,1.868-2.439,8.157,8.157,0,0,1-2.7,1.04,4.224,4.224,0,0,0-3.1-1.462,4.29,4.29,0,0,0-4.245,4.425,4.717,4.717,0,0,0,.11,1.025,11.956,11.956,0,0,1-8.753-4.836,4.763,4.763,0,0,0,1.314,6.066,4.064,4.064,0,0,1-1.924-.589v.058a4.51,4.51,0,0,0,3.407,4.469,4.022,4.022,0,0,1-1.118.152,3.881,3.881,0,0,1-.8-.087,4.316,4.316,0,0,0,3.966,3.161,8.2,8.2,0,0,1-5.273,1.92,8.094,8.094,0,0,1-1.013-.065,11.455,11.455,0,0,0,6.51,2.041C155.577,182.5,159.847,175.7,159.847,169.808Z" transform="translate(-132.387 -154.411)"/><path class="a" d="M38.436,19.218A19.218,19.218,0,1,0,19.218,38.436,19.219,19.219,0,0,0,38.436,19.218Zm-36.689,0A17.471,17.471,0,1,1,19.218,36.689,17.471,17.471,0,0,1,1.747,19.218Z"/></g></g></svg>