<svg xmlns="http://www.w3.org/2000/svg" width="44.5" height="44.5" viewBox="0 0 44.5 44.5"><defs><style>.a{fill:#8200dd;}</style></defs><path class="a" d="M43.631,18.143H38.068a.869.869,0,0,0-.869.869V23.4a.869.869,0,0,0,1.738,0v-3.52h3.824v22.88H38.938V29.92a.869.869,0,0,0-1.738,0V42.762H35.461V24.771a.869.869,0,0,0-.869-.869H29.029a.869.869,0,0,0-.869.869V42.762H26.422V30.854a.869.869,0,0,0-.869-.869H19.99a.869.869,0,0,0-.869.869V42.762H17.383V35.841a.869.869,0,0,0-.869-.869H10.951a.869.869,0,0,0-.869.869v6.921H2.607a.87.87,0,0,1-.869-.869V2.607a.87.87,0,0,1,.869-.869H25.029V7.475a2.61,2.61,0,0,0,2.607,2.607h5.736v10.69a.869.869,0,1,0,1.738,0V9.213a.869.869,0,0,0-.255-.615L26.513.255A.869.869,0,0,0,25.9,0H2.607A2.61,2.61,0,0,0,0,2.607V41.893A2.61,2.61,0,0,0,2.607,44.5H43.631a.869.869,0,0,0,.869-.869V19.012A.869.869,0,0,0,43.631,18.143ZM26.767,2.968l5.376,5.377H27.636a.87.87,0,0,1-.869-.869ZM15.645,42.762H11.82V36.71h3.824Zm9.039,0H20.859V31.724h3.824Zm9.039,0H29.9V25.64h3.824Z"/><g transform="translate(37.199 25.63)"><path class="a" d="M429.484,295.145a.869.869,0,1,0,.255.615A.873.873,0,0,0,429.484,295.145Z" transform="translate(-428 -294.89)"/></g><g transform="translate(4.659 4.757)"><path class="a" d="M61.6,54.729a.869.869,0,0,0-.869.869v1.563a7.994,7.994,0,1,0,8.816,8.816h1.563a.869.869,0,0,0,.869-.869A10.391,10.391,0,0,0,61.6,54.729Zm0,16.635a6.256,6.256,0,0,1-.869-12.451v6.2a.869.869,0,0,0,.869.869h6.2A6.266,6.266,0,0,1,61.6,71.364Zm.869-7.125h0V56.511a8.658,8.658,0,0,1,7.729,7.729Z" transform="translate(-53.602 -54.729)"/></g><g transform="translate(4.693 25.574)"><path class="a" d="M71.47,294.25h-16.6a.869.869,0,0,0,0,1.738h16.6a.869.869,0,0,0,0-1.738Z" transform="translate(-54 -294.25)"/></g><g transform="translate(4.693 29.768)"><path class="a" d="M60.432,342.5H54.869a.869.869,0,0,0,0,1.738h5.563a.869.869,0,1,0,0-1.738Z" transform="translate(-54 -342.5)"/></g><g transform="translate(14.609 29.768)"><path class="a" d="M169.564,342.755a.869.869,0,1,0,.255.615A.876.876,0,0,0,169.564,342.755Z" transform="translate(-168.08 -342.5)"/></g></svg>