<svg xmlns="http://www.w3.org/2000/svg" width="226" height="89.293" viewBox="0 0 226 89.293"><defs><style>.a{fill:#fff;stroke:#e4e4e4;}.b{fill:#fdbb30;}.c{fill:#1a75cf;}.d{stroke:none;}.e{fill:none;}</style></defs><g class="a"><rect class="d" width="226" height="89.293" rx="6"/><rect class="e" x="0.5" y="0.5" width="225" height="88.293" rx="5.5"/></g><g transform="translate(15.964 21.15)"><path class="b" d="M332.512,321.145a1.991,1.991,0,0,0,2.106-1.3l1.075-12.159c0-1.2-1.408-2.188-3.178-2.188s-3.175.987-3.175,2.189l1.074,12.159a1.984,1.984,0,0,0,2.1,1.3h0m-6.572,3.8a1.982,1.982,0,0,0-.071-2.471l-9.994-7.011c-1.039-.6-2.6.123-3.481,1.656s-.73,3.242.306,3.844l11.066,5.153a2,2,0,0,0,2.177-1.178l0,.007m13.149-.007a2,2,0,0,0,2.176,1.178l11.066-5.153c1.043-.6,1.191-2.312.312-3.844s-2.449-2.258-3.486-1.656l-9.995,7.011a1.992,1.992,0,0,0-.071,2.471l0-.007m-6.577,11.4a1.988,1.988,0,0,1,2.106,1.294l1.075,12.157c0,1.206-1.408,2.19-3.178,2.19s-3.175-.984-3.175-2.19l1.074-12.157a1.981,1.981,0,0,1,2.1-1.294h0m6.577-3.8a1.991,1.991,0,0,1,2.176-1.174l11.066,5.149c1.043.6,1.191,2.315.312,3.848s-2.449,2.255-3.486,1.654l-9.995-7a2,2,0,0,1-.071-2.474h0m-13.148,0a1.989,1.989,0,0,1-.071,2.475l-9.994,7c-1.039.6-2.6-.127-3.481-1.654s-.73-3.245.306-3.848l11.066-5.149a1.99,1.99,0,0,1,2.177,1.174h0" transform="translate(-160.763 -305.5)"/><path class="c" d="M-275.791,370.187a3.865,3.865,0,0,1-.135,1.1,3.839,3.839,0,0,1-3.7,2.591,2.5,2.5,0,0,1-2.72-2.68c0-2.784,3.064-3.553,6.552-3.533v2.527Zm5.471-4.851c0-4.591-1.961-8.63-8.589-8.63a15.687,15.687,0,0,0-7.576,1.807l1.079,3.69a11.092,11.092,0,0,1,5.525-1.554c3.362-.009,3.912,1.9,3.912,3.128v.29c-7.328-.011-11.96,2.527-11.96,7.7a6.1,6.1,0,0,0,6.461,6.117,7.339,7.339,0,0,0,5.894-2.619h.125s.836,3.5,5.45,2.162a29.768,29.768,0,0,1-.32-4.88v-7.207M-384.5,350.454s4.789,19.622,5.553,22.807c.892,3.717,2.5,5.086,7.133,4.162l2.99-12.165c.758-3.023,1.266-5.179,1.754-8.251h.085a80.711,80.711,0,0,0,1.453,8.261s1.217,5.523,1.841,8.423,2.364,4.727,6.9,3.732l7.125-26.969h-5.751l-2.434,11.661c-.654,3.393-1.247,6.047-1.705,9.15h-.081c-.416-3.076-.945-5.622-1.61-8.928l-2.532-11.883h-5.993l-2.71,11.583c-.767,3.521-1.486,6.363-1.942,9.362h-.083c-.468-2.825-1.09-6.4-1.764-9.8,0,0-1.609-8.285-2.174-11.141H-384.5m45.715,19.733a3.811,3.811,0,0,1-.137,1.1,3.838,3.838,0,0,1-3.7,2.591,2.5,2.5,0,0,1-2.719-2.68c0-2.784,3.063-3.553,6.552-3.533v2.527Zm5.47-4.851c0-4.591-1.961-8.63-8.588-8.63a15.691,15.691,0,0,0-7.578,1.807l1.078,3.69a11.092,11.092,0,0,1,5.526-1.554c3.364-.009,3.915,1.9,3.915,3.128v.29c-7.331-.011-11.961,2.527-11.961,7.7a6.1,6.1,0,0,0,6.456,6.117,7.344,7.344,0,0,0,5.9-2.619h.123s.838,3.5,5.451,2.162a29.716,29.716,0,0,1-.32-4.88v-7.207m9.13,6.362V350.454h-5.477v26.969h5.477V371.7m71.656-21.244v19.895c0,2.744.517,4.665,1.62,5.84a6.07,6.07,0,0,0,4.459,1.693,13.051,13.051,0,0,0,3.964-.588l-.071-4.279a8.37,8.37,0,0,1-2.08.247c-1.866,0-2.491-1.2-2.491-3.658v-7.612h4.77v-5.161h-4.77v-6.377h-5.4m-14.138,6.709v20.26h5.65V367.05a7.685,7.685,0,0,1,.123-1.5,4.264,4.264,0,0,1,4.467-3.562,10.523,10.523,0,0,1,1.63.143v-5.3a5.5,5.5,0,0,0-1.245-.125,5.963,5.963,0,0,0-5.514,4.279h-.153v-3.822h-4.958m-53.682,0v20.26h5.505V365.543a4.781,4.781,0,0,1,.259-1.658,3.729,3.729,0,0,1,3.346-2.6c2.222,0,3.26,1.878,3.26,4.588v11.546h5.5V365.4a5.6,5.6,0,0,1,.23-1.642,3.47,3.47,0,0,1,3.3-2.468c2.252,0,3.333,1.845,3.333,5.035v11.1h5.5V365.488c0-6.293-3.2-8.784-6.8-8.784a7.345,7.345,0,0,0-4,1.1,8.571,8.571,0,0,0-2.566,2.525h-.081a5.777,5.777,0,0,0-5.584-3.623,6.376,6.376,0,0,0-5.9,3.21h-.082v-2.753h-5.225" transform="translate(384.5 -340.701)"/><path class="b" d="M507.96,466.713h.083c.11,0,.181-.046.181-.113s-.066-.119-.169-.119c-.035,0-.071.007-.1.007v.225Zm-.013.546h-.293v-.953a2.3,2.3,0,0,1,.419-.036.645.645,0,0,1,.383.078.246.246,0,0,1,.1.209c0,.1-.09.181-.223.217v.012a.28.28,0,0,1,.2.245.964.964,0,0,0,.066.229h-.331a.631.631,0,0,1-.066-.2c-.019-.1-.064-.145-.162-.145h-.1Zm.121-1.264a.759.759,0,1,0,.007,0Zm.019-.259a1.1,1.1,0,1,1-.008,0h.007" transform="translate(-313.616 -430.976)"/></g></svg>