<svg xmlns="http://www.w3.org/2000/svg" width="48.271" height="44.5" viewBox="0 0 48.271 44.5"><defs><style>.a{fill:#8100d9;}</style></defs><g transform="translate(0 -20)"><g transform="translate(0 20)"><path class="a" d="M310.111,127.8a.943.943,0,0,0,1.333-1.333l-.013-.013a.943.943,0,1,0-1.333,1.333Z" transform="translate(-280.612 -116.166)"/><path class="a" d="M44.709,40.553,48,37.267a.943.943,0,0,0-.667-1.609H40.516A20.554,20.554,0,1,0,6.02,55.086,20.7,20.7,0,0,0,9.8,58.075l-2.84,5.018a.943.943,0,0,0,.82,1.407h4.855a.943.943,0,0,0,.821-.478l2.008-3.548a20.8,20.8,0,0,0,10.181,0l2.008,3.548a.943.943,0,0,0,.821.478h4.855a.943.943,0,0,0,.821-1.407l-2.84-5.018a20.7,20.7,0,0,0,3.778-2.989,20.483,20.483,0,0,0,5.43-9.638h6.812A.943.943,0,0,0,48,43.839Zm-1.724-.943h-6.58l2.067-2.067h6.58Zm-30.9,23H9.4l2.052-3.625a20.27,20.27,0,0,0,2.167.922Zm19.627,0H29.022l-1.53-2.7a20.271,20.271,0,0,0,2.167-.922Zm2.042-8.862a18.751,18.751,0,0,1-4.134,3.127c-.018.009-.037.017-.055.028l-.033.021a18.424,18.424,0,0,1-3.615,1.514.934.934,0,0,0-.146.042,18.85,18.85,0,0,1-10.433,0,.936.936,0,0,0-.147-.042,18.422,18.422,0,0,1-3.615-1.514l-.033-.021c-.018-.01-.037-.019-.055-.028a18.749,18.749,0,0,1-4.134-3.127,18.667,18.667,0,1,1,31.217-18.1h-.488a.943.943,0,0,0-.667.276l-2.5,2.5a14.526,14.526,0,0,0-1.643-4.9.943.943,0,1,0-1.651.911,12.52,12.52,0,0,1,1.523,5.16H28.985a8.488,8.488,0,1,0,0,1.886h4.153a12.621,12.621,0,1,1-6.482-12.009.943.943,0,1,0,.911-1.651,14.624,14.624,0,0,0-8.954-1.673,14.519,14.519,0,1,0,16.3,16.51l2.5,2.5a.943.943,0,0,0,.667.276h.488A18.607,18.607,0,0,1,33.753,53.753ZM23.632,38.775a.943.943,0,0,0-1.288-.345l-2.263,1.306a.943.943,0,0,0,0,1.633l2.263,1.306a.942.942,0,0,0,1.34-1.18h3.4A6.549,6.549,0,0,1,25.22,45.22h0a6.6,6.6,0,1,1,1.866-5.609h-3.4A.94.94,0,0,0,23.632,38.775Zm14.84,4.788L36.405,41.5h6.58l2.067,2.067Z" transform="translate(0 -20)"/></g></g></svg>