<svg xmlns="http://www.w3.org/2000/svg" width="42.51" height="42.51" viewBox="0 0 42.51 42.51"><defs><style>.a{fill:#8200dd;stroke:#f7f7f7;stroke-width:0.4px;}.b{fill:none;stroke:#8200dd;stroke-width:2px;}</style></defs><g transform="translate(-804.8 -4013.8)"><g transform="translate(805 4014)"><path class="a" d="M1.468,17.849A1.466,1.466,0,0,0,2.937,16.4V6.858A3.909,3.909,0,0,1,6.854,2.937H16.4A1.469,1.469,0,0,0,16.4,0H6.854A6.877,6.877,0,0,0,0,6.858V16.4A1.465,1.465,0,0,0,1.468,17.849Z"/><path class="a" d="M35.273,0H25.73a1.469,1.469,0,0,0,0,2.937h9.543a3.933,3.933,0,0,1,3.945,3.921V16.4a1.446,1.446,0,1,0,2.892,0V6.858A6.863,6.863,0,0,0,35.273,0Z"/><path class="a" d="M16.4,39.219H6.855a3.928,3.928,0,0,1-3.918-3.942V25.733a1.469,1.469,0,0,0-2.937,0v9.544A6.857,6.857,0,0,0,6.855,42.11H16.4a1.446,1.446,0,1,0,0-2.891Z"/><path class="a" d="M40.664,24.284a1.444,1.444,0,0,0-1.445,1.448v9.544a3.952,3.952,0,0,1-3.947,3.942H25.729a1.446,1.446,0,1,0,0,2.892h9.543a6.842,6.842,0,0,0,6.838-6.834V25.733A1.446,1.446,0,0,0,40.664,24.284Z"/><path class="b" d="M34.655,10.812A3.357,3.357,0,0,0,31.3,7.455H10.812a3.357,3.357,0,0,0-3.357,3.357V31.3a3.357,3.357,0,0,0,3.357,3.357H31.3A3.357,3.357,0,0,0,34.654,31.3V10.812Z"/></g></g></svg>